<svg width="366" height="366" fill="none" xmlns="http://www.w3.org/2000/svg"><path fill-rule="evenodd" clip-rule="evenodd" d="M210.751 12.744c2.487-9.202 11.813-14.549 21.015-12.186 9.202 2.487 14.549 11.813 12.186 21.015-2.487 9.202-11.813 14.549-21.015 12.186-9.202-2.363-14.549-11.813-12.186-21.015zM73.717 49.551a17.112 17.112 0 00-24.248 0 17.112 17.112 0 000 24.248 17.112 17.112 0 0024.248 0 17.112 17.112 0 000-24.248zm109.304 23.627c6.715 0 12.186-5.472 12.186-12.186 0-6.715-5.471-12.187-12.186-12.187s-12.186 5.472-12.186 12.187c0 6.714 5.471 12.186 12.186 12.186zM163 108.493c4.601-1.243 7.337-5.968 6.094-10.57-1.244-4.6-5.969-7.336-10.57-6.093-4.601 1.244-7.337 5.97-6.093 10.57 1.243 4.601 5.968 7.337 10.569 6.093zm20.021 19.648a6.104 6.104 0 006.093-6.094 6.103 6.103 0 00-6.093-6.093 6.103 6.103 0 00-6.093 6.093 6.103 6.103 0 006.093 6.094zm0 121.987a6.103 6.103 0 006.093-6.093 6.103 6.103 0 00-6.093-6.093 6.102 6.102 0 00-6.093 6.093 6.103 6.103 0 006.093 6.093zm67.025-67.149a6.104 6.104 0 01-6.094 6.093 6.103 6.103 0 01-6.093-6.093 6.103 6.103 0 016.093-6.093 6.103 6.103 0 016.094 6.093zm-128.081 6.093a6.103 6.103 0 006.093-6.093 6.102 6.102 0 00-6.093-6.093 6.103 6.103 0 00-6.093 6.093 6.103 6.103 0 006.093 6.093zm110.796-41.781c2.86-1.741 6.715-.746 8.332 2.238 1.741 2.86.746 6.59-2.239 8.331-2.86 1.741-6.59.746-8.331-2.238-1.741-2.984-.746-6.715 2.238-8.331zm-97.366 63.168c-1.617-2.86-5.472-3.979-8.332-2.238-2.86 1.741-3.854 5.472-2.238 8.332 1.617 2.984 5.471 3.979 8.332 2.238 2.86-1.617 3.979-5.347 2.238-8.332zm14.052-85.552c2.984-1.74 6.591-.746 8.331 2.239 1.741 2.86.747 6.59-2.238 8.331-2.984 1.741-6.715.746-8.331-2.238-1.741-2.86-.746-6.591 2.238-8.332zm69.262 107.935c-1.741-2.86-5.347-3.979-8.331-2.238-2.86 1.617-3.855 5.347-2.239 8.332 1.741 2.984 5.472 3.979 8.332 2.238 2.984-1.741 3.979-5.347 2.238-8.332zm-10.57-105.697c1.741-2.86 5.472-3.854 8.332-2.238 2.984 1.741 3.979 5.471 2.238 8.331-1.616 2.861-5.347 3.855-8.331 2.239-2.86-1.617-3.855-5.347-2.239-8.332zm-52.599 103.46c-2.86-1.617-6.59-.622-8.331 2.238-1.741 2.86-.746 6.59 2.238 8.331 2.86 1.617 6.591.746 8.331-2.238 1.617-2.86.622-6.591-2.238-8.331zm-30.715-81.077c1.617-2.86 5.347-3.979 8.332-2.238 2.86 1.741 3.979 5.347 2.238 8.331-1.741 2.861-5.472 3.855-8.332 2.239-2.86-1.741-3.854-5.472-2.238-8.332zm114.029 58.693c-2.86-1.616-6.59-.621-8.331 2.239-1.741 2.984-.746 6.714 2.238 8.331 2.985 1.741 6.715.622 8.332-2.238 1.741-2.86.621-6.591-2.239-8.332zm-25.367 55.461c1.243 4.601-1.493 9.326-6.094 10.569-4.6 1.244-9.326-1.492-10.569-6.093-1.244-4.601 1.492-9.326 6.093-10.569 4.601-1.244 9.326 1.492 10.57 6.093zm60.682-105.076c1.244 4.601-1.492 9.326-6.093 10.445-4.601 1.244-9.326-1.492-10.57-6.093-1.243-4.601 1.493-9.326 6.094-10.57 4.6-1.119 9.326 1.617 10.569 6.218zm-171.851 54.963c4.601-1.244 7.336-5.969 6.093-10.57-1.244-4.601-5.969-7.337-10.57-6.093-4.6 1.243-7.337 5.969-6.093 10.57 1.243 4.601 5.969 7.336 10.57 6.093zm135.292-97.242c3.358-3.357 8.829-3.357 12.187 0 3.357 3.358 3.357 8.829 0 12.186-3.358 3.358-8.829 3.358-12.187 0-3.357-3.481-3.357-8.953 0-12.186zM128.432 237.693c-3.358-3.358-8.829-3.358-12.187 0-3.357 3.357-3.357 8.704 0 12.186 3.358 3.358 8.829 3.358 12.187 0 3.357-3.357 3.357-8.829 0-12.186zm-12.187-121.366c3.358-3.357 8.829-3.357 12.187 0 3.357 3.358 3.357 8.829 0 12.186-3.358 3.358-8.829 3.358-12.187 0-3.357-3.481-3.357-8.828 0-12.186zm133.552 121.366c-3.358-3.358-8.829-3.358-12.187 0-3.357 3.357-3.357 8.704 0 12.186 3.358 3.358 8.829 3.358 12.187 0 3.357-3.357 3.357-8.829 0-12.186zm-52.849-139.77c1.243-4.6 5.969-7.336 10.57-6.093 4.601 1.244 7.336 5.97 6.093 10.57-1.244 4.601-5.969 7.337-10.57 6.093-4.725-1.243-7.337-5.968-6.093-10.57zM163 257.59c-4.601-1.244-9.326 1.492-10.569 6.093-1.244 4.601 1.492 9.326 6.093 10.569 4.601 1.244 9.326-1.492 10.57-6.093 1.243-4.601-1.493-9.326-6.094-10.569zm-71.252-98.983c1.243-4.601 5.969-7.336 10.57-6.093 4.601 1.244 7.336 5.969 6.093 10.57-1.244 4.601-5.969 7.336-10.57 6.093-4.6-1.244-7.337-5.969-6.093-10.57zm176.328 38.3c-4.601-1.244-9.326 1.492-10.57 6.093-1.119 4.601 1.492 9.326 6.218 10.57 4.476 1.243 9.202-1.492 10.445-6.093 1.244-4.601-1.492-9.327-6.093-10.57zm-82.07 16.663a3.078 3.078 0 01-3.109 3.108 3.078 3.078 0 01-3.109-3.108c0-1.617 1.368-3.109 3.109-3.109a3.079 3.079 0 013.109 3.109zm-3.109-57.947a3.079 3.079 0 003.109-3.109c0-1.616-1.368-2.984-3.109-2.984-1.741 0-3.109 1.243-3.109 2.984a3.079 3.079 0 003.109 3.109zm33.574 27.357c0 1.74-1.368 2.984-2.985 2.984-1.741 0-3.108-1.368-3.108-2.984a3.078 3.078 0 013.108-3.109c1.617.124 2.985 1.492 2.985 3.109zm-64.04 2.984c1.741 0 3.109-1.244 3.109-2.984 0-1.617-1.368-2.985-3.109-3.109a3.079 3.079 0 00-3.109 3.109c0 1.616 1.368 2.984 3.109 2.984zm55.46-20.767a3.069 3.069 0 014.228 1.119 3.068 3.068 0 01-1.12 4.228c-1.492.871-3.357.373-4.103-1.119-.995-1.616-.498-3.482.995-4.228zm-48.745 31.585c-.747-1.492-2.612-1.989-4.104-1.119-1.492.746-1.99 2.612-1.243 4.104a3.067 3.067 0 004.227 1.119c1.493-.746 1.99-2.611 1.12-4.104zm7.088-42.776c1.492-.87 3.358-.373 4.104 1.119a3.068 3.068 0 01-1.119 4.228c-1.493.871-3.358.373-4.104-1.119-.87-1.617-.373-3.482 1.119-4.228zm34.693 53.843a3.068 3.068 0 00-4.228-1.119c-1.492.871-1.989 2.736-.994 4.228.746 1.492 2.611 1.99 4.103 1.119a3.067 3.067 0 001.119-4.228zm-5.347-52.724c.871-1.492 2.736-1.989 4.104-1.119 1.492.871 1.989 2.736 1.119 4.104a3.068 3.068 0 01-4.228 1.119c-1.368-.871-1.865-2.736-.995-4.104zm-26.361 51.605c-1.368-.87-3.233-.373-4.104 1.119-.87 1.493-.373 3.358 1.119 4.104 1.368.87 3.233.373 4.104-1.119.87-1.368.373-3.233-1.119-4.104zm-15.296-40.537c.87-1.493 2.736-1.99 4.103-1.12 1.493.871 1.99 2.736 1.12 4.104-.871 1.492-2.736 1.99-4.104 1.119-1.492-.746-1.99-2.611-1.119-4.103zm56.952 29.47c-1.368-.87-3.233-.373-4.103 1.119-.871 1.368-.373 3.233.994 4.104a3.068 3.068 0 004.228-1.119c.871-1.368.373-3.233-1.119-4.104zm-12.683 27.73c.622 2.239-.746 4.601-2.985 5.223-2.238.622-4.601-.746-5.222-2.984-.622-2.239.746-4.601 2.984-5.223 2.238-.746 4.601.622 5.223 2.984zm-25.119-77.718c2.238-.622 3.606-2.985 2.984-5.223-.621-2.238-2.984-3.606-5.222-2.984-2.238.621-3.606 2.984-2.985 5.222.622 2.239 2.985 3.607 5.223 2.985zm55.46 25.118c.622 2.238-.746 4.601-2.984 5.223-2.239.622-4.601-.746-5.223-2.985-.622-2.238.746-4.6 2.984-5.222 2.239-.622 4.601.746 5.223 2.984zm-85.801 27.482c2.238-.622 3.606-2.985 2.984-5.223-.622-2.362-2.984-3.73-5.223-2.984-2.238.622-3.606 2.984-2.984 5.222.622 2.239 2.985 3.607 5.223 2.985zm67.521-48.621c1.617-1.617 4.353-1.617 6.094 0a4.435 4.435 0 010 6.093c-1.741 1.741-4.353 1.741-6.094 0-1.616-1.741-1.616-4.477 0-6.093zm-54.589 60.683c-1.741-1.741-4.477-1.741-6.093 0-1.617 1.616-1.617 4.352 0 6.093 1.741 1.741 4.476 1.741 6.093 0 1.616-1.741 1.616-4.477 0-6.093zm-6.093-60.683c1.616-1.617 4.352-1.617 6.093 0a4.435 4.435 0 010 6.093c-1.741 1.741-4.352 1.741-6.093 0-1.617-1.741-1.617-4.477 0-6.093zm66.776 60.683c-1.741-1.741-4.477-1.741-6.094 0-1.616 1.616-1.616 4.352 0 6.093 1.741 1.741 4.353 1.741 6.094 0 1.616-1.741 1.616-4.477 0-6.093zm-26.362-69.885c.621-2.238 2.984-3.606 5.222-2.984 2.239.621 3.607 2.984 2.985 5.222-.622 2.239-2.985 3.607-5.223 2.985-2.238-.622-3.606-2.86-2.984-5.223zm-17.036 79.956c-2.239-.621-4.601.746-5.223 2.985-.622 2.238.746 4.601 2.984 5.222 2.239.622 4.601-.746 5.223-2.984.622-2.238-.746-4.601-2.984-5.223zm-35.564-49.615c.621-2.238 2.984-3.606 5.222-2.984 2.239.622 3.606 2.984 2.985 5.222-.622 2.239-2.985 3.607-5.223 2.985-2.238-.622-3.606-2.86-2.984-5.223zm88.164 19.274c-2.239-.622-4.601.746-5.223 2.985-.622 2.238.622 4.6 2.984 5.222 2.239.622 4.601-.746 5.223-2.984.622-2.238-.746-4.601-2.984-5.223zm-41.533 3.109c0 .621-.497.994-.995.994-.621 0-.994-.497-.994-.994 0-.622.497-.995.994-.995.498 0 .995.497.995.995zm-.995-19.274c.498 0 .995-.373.995-.995s-.497-1.119-.995-.995c-.497 0-.994.498-.994.995s.373.995.994.995zm11.067 9.078c0 .497-.497.995-.995.995-.621 0-.994-.498-.994-.995 0-.622.497-.995.994-.995.622 0 .995.497.995.995zm-21.264.995c.497 0 .995-.498.995-.995 0-.498-.498-.995-.995-.995s-.995.373-.995.995c0 .497.373.995.995.995zm18.404-6.964c.498-.249 1.12-.124 1.368.373.249.497.125 1.119-.373 1.368-.497.248-1.119.124-1.368-.373-.248-.373-.124-.995.373-1.368zm-16.165 10.57c-.249-.498-.871-.622-1.368-.373-.498.248-.746.87-.373 1.367.248.498.87.622 1.367.374.498-.249.622-.871.374-1.368zm2.362-14.301c.498-.248 1.12-.124 1.368.373.249.498.125 1.12-.373 1.368-.497.249-1.119.125-1.368-.373-.373-.373-.124-.995.373-1.368zm11.441 18.032c-.249-.498-.871-.622-1.368-.373-.498.248-.622.87-.373 1.367.248.498.87.622 1.368.373.497-.248.621-.87.373-1.367zm-1.741-17.659c.248-.497.87-.621 1.368-.373.497.249.621.871.373 1.368-.249.498-.871.622-1.368.373-.498-.248-.622-.87-.373-1.368zm-8.705 17.286c-.497-.249-1.119-.125-1.368.373-.373.497-.124 1.119.373 1.367.498.249 1.12.125 1.368-.373.249-.497.125-1.119-.373-1.367zm-5.098-13.555c.248-.497.87-.622 1.367-.373.498.249.622.87.374 1.368-.249.497-.871.621-1.368.373-.498-.249-.746-.871-.373-1.368zm18.901 9.824c-.497-.249-1.119-.125-1.368.373-.248.497-.124 1.119.373 1.368.498.248 1.12.124 1.368-.374.249-.497.125-1.119-.373-1.367zm-4.228 9.201c.249.746-.249 1.492-.995 1.741-.746.249-1.492-.249-1.741-.995-.248-.746.249-1.492.995-1.741.746-.124 1.617.249 1.741.995zm-8.332-25.864c.746-.249 1.244-.995.995-1.741-.249-.746-.995-1.244-1.741-.995-.746.249-1.243.995-.995 1.741.249.746.995 1.243 1.741.995zM198.192 179c.248.746-.249 1.492-.995 1.74-.746.249-1.492-.248-1.741-.994-.249-.746.249-1.493.995-1.741.746-.249 1.492.124 1.741.995zm-28.601 9.077c.747-.249 1.244-.995.995-1.741-.248-.746-.995-1.243-1.741-.995-.746.249-1.243.995-.994 1.741.248.746.994 1.244 1.74.995zm22.507-16.165c.622-.498 1.493-.498 1.99 0 .497.622.497 1.492 0 1.989-.622.622-1.492.622-1.99 0-.621-.497-.621-1.492 0-1.989zm-18.279 20.268c-.497-.621-1.492-.621-1.99 0-.497.498-.497 1.368 0 1.99.498.622 1.493.622 1.99 0 .622-.497.622-1.492 0-1.99zm-1.99-20.268c.498-.498 1.493-.498 1.99 0 .622.622.622 1.492 0 1.989-.497.622-1.492.622-1.99 0-.497-.497-.497-1.492 0-1.989zm22.259 20.268c-.497-.621-1.368-.621-1.99 0-.621.498-.621 1.368 0 1.99.498.622 1.368.622 1.99 0 .497-.497.497-1.492 0-1.99zm-8.828-23.377c.248-.746.995-1.244 1.741-.995.746.249 1.243.995.994 1.741-.248.746-.994 1.243-1.74.995-.747-.125-1.12-.995-.995-1.741zm-5.597 26.611c-.746-.249-1.492.249-1.741.995-.248.87.249 1.616.995 1.741.746.248 1.492-.249 1.741-.995.249-.746-.249-1.492-.995-1.741zM167.726 179c.249-.746.995-1.244 1.741-.995.746.249 1.244.995.995 1.741-.249.746-.995 1.243-1.741.995-.746-.249-1.119-.995-.995-1.741zm29.347 6.341c-.747-.248-1.493.249-1.741.995-.125.746.373 1.617.995 1.741.746.249 1.492-.249 1.74-.995.249-.746-.248-1.492-.994-1.741zm-1.866 119.625c0 6.715-5.471 12.186-12.186 12.186s-12.186-5.471-12.186-12.186 5.471-12.186 12.186-12.186 12.186 5.471 12.186 12.186zm121.987-121.987c0 6.714-5.471 12.186-12.186 12.186s-12.186-5.472-12.186-12.186c0-6.715 5.471-12.187 12.186-12.187s12.186 5.472 12.186 12.187zm-256.16 12.186c6.715 0 12.186-5.472 12.186-12.186 0-6.715-5.471-12.187-12.186-12.187s-12.187 5.472-12.187 12.187c0 6.714 5.472 12.186 12.187 12.186zM282.5 111.478c5.844-3.358 13.305-1.368 16.663 4.476 3.357 5.845 1.367 13.306-4.477 16.663-5.845 3.358-13.305 1.368-16.663-4.476-3.357-5.845-1.368-13.306 4.477-16.663zM87.894 237.941c-3.358-5.844-10.819-7.834-16.663-4.477-5.845 3.358-7.834 10.819-4.477 16.663 3.358 5.845 10.819 7.834 16.663 4.477 5.844-3.358 7.834-10.818 4.477-16.663zm27.978-171.105c5.845-3.358 13.306-1.368 16.663 4.476 3.357 5.845 1.368 13.306-4.477 16.663-5.844 3.358-13.305 1.368-16.662-4.476-3.358-5.845-1.368-13.306 4.476-16.663zm138.65 215.747c-3.357-5.844-10.818-7.834-16.663-4.476-5.844 3.357-7.834 10.818-4.476 16.662 3.357 5.845 10.818 7.834 16.663 4.477 5.844-3.358 7.834-10.819 4.476-16.663zm-21.139-211.27c3.357-5.845 10.818-7.835 16.663-4.477 5.844 3.357 7.834 10.818 4.476 16.663-3.357 5.844-10.818 7.834-16.663 4.476-5.844-3.357-7.834-10.818-4.476-16.663zM128.058 278.106c-5.844-3.358-13.305-1.368-16.662 4.476-3.358 5.844-1.368 13.305 4.476 16.663 5.845 3.357 13.306 1.368 16.663-4.477 3.357-5.844 1.368-13.305-4.477-16.662zM66.754 115.954c3.358-5.844 10.819-7.834 16.663-4.476 5.844 3.357 7.834 10.818 4.477 16.663-3.358 5.844-10.819 7.834-16.663 4.476-5.845-3.357-7.834-10.818-4.477-16.663zm227.933 117.51c-5.845-3.357-13.305-1.367-16.663 4.477-3.357 5.845-1.368 13.305 4.477 16.663 5.844 3.357 13.305 1.368 16.663-4.477 3.357-5.844 1.367-13.305-4.477-16.663zM33.801 223.019c2.487 9.202-2.984 18.528-12.186 21.015C12.413 246.521 3.087 241.05.6 231.848c-2.487-9.202 2.985-18.528 12.186-21.015 9.078-2.363 18.529 2.985 21.015 12.186zM292.2 292.282a17.113 17.113 0 0124.249 0 17.113 17.113 0 010 24.248 17.113 17.113 0 01-24.249 0 17.113 17.113 0 010-24.248zm-149.22 39.917c-9.201-2.363-18.528 2.984-21.015 12.186-2.487 9.077 2.985 18.528 12.187 21.015 9.202 2.363 18.528-2.984 21.015-12.186 2.362-9.202-2.985-18.528-12.187-21.015zM.6 134.109c2.487-9.202 11.813-14.549 21.015-12.186 9.202 2.487 14.55 11.813 12.186 21.015-2.487 9.202-11.813 14.549-21.015 12.186C3.585 152.762-1.887 143.311.6 134.109zm352.531 21.015c9.202-2.487 14.673-11.813 12.186-21.015-2.487-9.077-11.813-14.549-21.015-12.186-9.202 2.487-14.673 11.813-12.186 21.015s11.813 14.673 21.015 12.186zM142.98 33.759c9.202-2.487 14.674-11.813 12.187-21.015C152.68 3.666 143.229-1.805 134.152.558c-9.202 2.487-14.674 11.813-12.187 21.015s11.814 14.673 21.015 12.186zm100.972 310.626c2.487 9.202-2.984 18.528-12.186 21.015-9.202 2.487-18.528-2.984-21.015-12.186-2.487-9.202 2.984-18.528 12.186-21.015 9.202-2.363 18.528 2.984 21.015 12.186zm109.18-133.552c-9.202-2.362-18.529 2.985-21.016 12.187-2.362 9.201 2.985 18.528 12.062 21.015 9.202 2.362 18.528-2.985 21.015-12.187 2.487-9.201-2.86-18.528-12.061-21.015zM49.469 292.282a17.112 17.112 0 0124.248 0 17.112 17.112 0 010 24.248 17.112 17.112 0 01-24.248 0 17.112 17.112 0 010-24.248zm266.98-242.73a17.113 17.113 0 00-24.249 0 17.114 17.114 0 000 24.247 17.113 17.113 0 0024.249 0 17.114 17.114 0 000-24.248z" fill="#E9EDF6" fill-opacity=".5"/></svg>