<svg width="452" height="642" fill="none" xmlns="http://www.w3.org/2000/svg"><path fill-rule="evenodd" clip-rule="evenodd" d="M369.201 22.325c4.357-16.12 20.695-25.487 36.815-21.348 16.12 4.357 25.487 20.695 21.348 36.815-4.357 16.12-20.695 25.487-36.815 21.348-16.12-4.139-25.487-20.694-21.348-36.815zm-240.06 64.48c-11.763-11.763-30.715-11.763-42.479 0-11.763 11.764-11.763 30.716 0 42.479 11.764 11.764 30.716 11.764 42.479 0 11.763-11.763 11.763-30.715 0-42.479zm191.481 41.39c11.763 0 21.348-9.585 21.348-21.348 0-11.763-9.585-21.348-21.348-21.348-11.763 0-21.348 9.585-21.348 21.348 0 11.763 9.585 21.348 21.348 21.348zm-35.072 61.867c8.06-2.178 12.853-10.456 10.674-18.516-2.178-8.06-10.456-12.853-18.516-10.674-8.06 2.178-12.853 10.456-10.674 18.516 2.178 8.06 10.456 12.853 18.516 10.674zm35.072 34.419c5.882 0 10.675-4.793 10.675-10.674 0-5.882-4.793-10.674-10.675-10.674-5.881 0-10.674 4.792-10.674 10.674 0 5.881 4.793 10.674 10.674 10.674zm0 213.701c5.882 0 10.675-4.792 10.675-10.674 0-5.881-4.793-10.674-10.675-10.674-5.881 0-10.674 4.793-10.674 10.674 0 5.882 4.793 10.674 10.674 10.674zm117.416-117.634c0 5.882-4.792 10.674-10.674 10.674s-10.674-4.792-10.674-10.674c0-5.881 4.792-10.674 10.674-10.674s10.674 4.793 10.674 10.674zm-224.375 10.674c5.881 0 10.674-4.792 10.674-10.674 0-5.881-4.793-10.674-10.674-10.674-5.882 0-10.674 4.793-10.674 10.674 0 5.882 4.792 10.674 10.674 10.674zm194.095-73.193c5.011-3.05 11.764-1.307 14.596 3.921 3.049 5.01 1.306 11.545-3.922 14.595-5.01 3.05-11.545 1.307-14.595-3.921-3.05-5.228-1.307-11.763 3.921-14.595zM237.19 368.69c-2.832-5.01-9.585-6.971-14.595-3.921-5.011 3.049-6.753 9.585-3.921 14.595 2.832 5.228 9.585 6.971 14.595 3.921 5.01-2.832 6.971-9.367 3.921-14.595zm24.616-149.873c5.228-3.05 11.545-1.307 14.595 3.921 3.05 5.011 1.307 11.546-3.921 14.596-5.229 3.049-11.764 1.307-14.596-3.922-3.049-5.01-1.307-11.545 3.922-14.595zm121.337 189.084c-3.05-5.01-9.367-6.971-14.596-3.921-5.01 2.832-6.753 9.367-3.921 14.595 3.05 5.228 9.585 6.971 14.596 3.921 5.228-3.049 6.97-9.367 3.921-14.595zm-18.517-185.164c3.05-5.01 9.585-6.753 14.596-3.921 5.228 3.05 6.97 9.585 3.921 14.596-2.832 5.01-9.367 6.753-14.596 3.921-5.01-2.832-6.753-9.367-3.921-14.596zM272.48 403.981c-5.011-2.832-11.546-1.09-14.596 3.921-3.049 5.01-1.307 11.545 3.922 14.595 5.01 2.832 11.545 1.307 14.595-3.921 2.832-5.01 1.089-11.546-3.921-14.595zm-53.806-142.032c2.832-5.011 9.367-6.971 14.595-3.921 5.01 3.049 6.971 9.367 3.921 14.595-3.05 5.01-9.585 6.753-14.595 3.921-5.011-3.05-6.753-9.585-3.921-14.595zm199.758 102.82c-5.01-2.832-11.545-1.089-14.595 3.921-3.05 5.228-1.307 11.764 3.921 14.595 5.228 3.05 11.764 1.09 14.596-3.921 3.049-5.01 1.089-11.545-3.922-14.595zm-44.439 97.157c2.178 8.06-2.614 16.338-10.674 18.517-8.06 2.178-16.338-2.614-18.517-10.674-2.178-8.061 2.614-16.338 10.675-18.517 8.06-2.178 16.338 2.614 18.516 10.674zm106.306-184.075c2.178 8.06-2.614 16.338-10.674 18.298-8.06 2.179-16.338-2.614-18.517-10.674-2.178-8.06 2.614-16.338 10.674-18.516 8.06-1.961 16.338 2.832 18.517 10.892zm-301.055 96.286c8.061-2.179 12.853-10.456 10.675-18.516-2.179-8.061-10.457-12.853-18.517-10.675-8.06 2.179-12.852 10.457-10.674 18.517 2.178 8.06 10.456 12.852 18.516 10.674zm237.01-170.351c5.882-5.882 15.467-5.882 21.348 0 5.882 5.881 5.882 15.466 0 21.348-5.881 5.882-15.466 5.882-21.348 0-5.882-6.099-5.882-15.684 0-21.348zM224.991 416.398c-5.882-5.881-15.467-5.881-21.349 0-5.881 5.882-5.881 15.249 0 21.348 5.882 5.882 15.467 5.882 21.349 0 5.881-5.881 5.881-15.466 0-21.348zm-21.349-212.612c5.882-5.882 15.467-5.882 21.349 0 5.881 5.881 5.881 15.466 0 21.348-5.882 5.882-15.467 5.882-21.349 0-5.881-6.099-5.881-15.467 0-21.348zm233.96 212.612c-5.881-5.881-15.466-5.881-21.348 0-5.882 5.882-5.882 15.249 0 21.348 5.882 5.882 15.467 5.882 21.348 0 5.882-5.881 5.882-15.466 0-21.348zM345.02 171.546c2.179-8.06 10.456-12.853 18.516-10.674 8.061 2.178 12.853 10.456 10.675 18.516-2.179 8.06-10.457 12.853-18.517 10.674-8.278-2.178-12.852-10.456-10.674-18.516zm-59.47 279.706c-8.06-2.178-16.338 2.614-18.516 10.674-2.179 8.06 2.614 16.338 10.674 18.517 8.06 2.178 16.338-2.614 18.516-10.674 2.179-8.061-2.614-16.338-10.674-18.517zm-124.822-173.4c2.178-8.06 10.456-12.853 18.516-10.675 8.061 2.179 12.853 10.457 10.675 18.517-2.179 8.06-10.457 12.852-18.517 10.674-8.06-2.178-12.852-10.456-10.674-18.516zm308.896 67.094c-8.06-2.178-16.338 2.614-18.516 10.675-1.96 8.06 2.614 16.337 10.892 18.516 7.842 2.178 16.12-2.614 18.299-10.674 2.178-8.06-2.614-16.338-10.675-18.517zm-143.773 29.191c0 3.05-2.397 5.446-5.446 5.446-3.05 0-5.446-2.396-5.446-5.446 0-2.832 2.396-5.446 5.446-5.446 3.049 0 5.446 2.396 5.446 5.446zm-5.446-101.513c3.049 0 5.446-2.397 5.446-5.447 0-2.831-2.397-5.228-5.446-5.228-3.05 0-5.446 2.179-5.446 5.228 0 3.05 2.396 5.447 5.446 5.447zm58.816 47.924c0 3.05-2.396 5.228-5.228 5.228-3.049 0-5.446-2.396-5.446-5.228 0-3.05 2.397-5.446 5.446-5.446 2.832.218 5.228 2.614 5.228 5.446zm-112.187 5.228c3.049 0 5.446-2.178 5.446-5.228 0-2.832-2.397-5.228-5.446-5.446-3.05 0-5.446 2.396-5.446 5.446 0 2.832 2.396 5.228 5.446 5.228zm97.157-36.38c2.614-1.524 5.881-.653 7.406 1.961 1.525 2.614.654 5.882-1.96 7.407-2.614 1.524-5.882.653-7.189-1.961-1.743-2.832-.871-6.1 1.743-7.407zm-85.394 55.332c-1.307-2.614-4.574-3.485-7.188-1.96-2.615 1.307-3.486 4.574-2.179 7.188 1.525 2.614 4.793 3.486 7.407 1.961 2.614-1.307 3.485-4.575 1.96-7.189zm12.417-74.937c2.614-1.525 5.881-.653 7.189 1.961 1.524 2.614.653 5.881-1.961 7.406-2.614 1.525-5.882.654-7.189-1.96-1.525-2.832-.653-6.1 1.961-7.407zm60.777 94.325c-1.525-2.614-4.792-3.486-7.406-1.961-2.614 1.525-3.486 4.793-1.743 7.407 1.307 2.614 4.575 3.485 7.189 1.96 2.614-1.524 3.485-4.792 1.96-7.406zm-9.367-92.364c1.525-2.614 4.793-3.486 7.189-1.961 2.614 1.525 3.485 4.793 1.96 7.189-1.524 2.614-4.792 3.485-7.406 1.96-2.396-1.524-3.268-4.792-1.743-7.188zm-46.182 90.403c-2.396-1.525-5.664-.653-7.189 1.961-1.525 2.614-.653 5.882 1.961 7.189 2.396 1.524 5.664.653 7.189-1.961 1.524-2.396.653-5.664-1.961-7.189zm-26.794-71.015c1.525-2.614 4.793-3.485 7.189-1.961 2.614 1.525 3.485 4.793 1.96 7.189-1.525 2.614-4.792 3.486-7.188 1.961-2.614-1.307-3.486-4.575-1.961-7.189zm99.77 51.628c-2.396-1.525-5.664-.654-7.189 1.96-1.524 2.396-.653 5.664 1.743 7.189 2.614 1.525 5.882.653 7.407-1.961 1.525-2.396.653-5.664-1.961-7.188zm-22.219 48.578c1.089 3.921-1.307 8.06-5.228 9.149-3.921 1.09-8.06-1.307-9.149-5.228-1.09-3.921 1.307-8.06 5.228-9.149 3.921-1.307 8.06 1.089 9.149 5.228zm-44.004-136.15c3.921-1.089 6.318-5.228 5.228-9.149-1.089-3.921-5.228-6.317-9.149-5.228-3.921 1.089-6.317 5.228-5.228 9.149 1.089 3.921 5.228 6.317 9.149 5.228zm97.157 44.003c1.089 3.922-1.307 8.061-5.228 9.15-3.921 1.089-8.06-1.307-9.15-5.228-1.089-3.922 1.307-8.061 5.229-9.15 3.921-1.089 8.06 1.307 9.149 5.228zm-150.31 48.144c3.921-1.089 6.318-5.228 5.228-9.15-1.089-4.138-5.228-6.535-9.149-5.228-3.921 1.09-6.317 5.228-5.228 9.15 1.089 3.921 5.228 6.317 9.149 5.228zm118.287-85.176c2.832-2.832 7.624-2.832 10.674 0 2.832 3.049 2.832 7.624 0 10.674-3.05 3.05-7.624 3.05-10.674 0-2.832-3.05-2.832-7.842 0-10.674zm-95.631 106.306c-3.05-3.049-7.842-3.049-10.674 0-2.832 2.832-2.832 7.625 0 10.674 3.05 3.05 7.842 3.05 10.674 0 2.832-3.049 2.832-7.842 0-10.674zm-10.674-106.306c2.832-2.832 7.624-2.832 10.674 0 2.832 3.049 2.832 7.624 0 10.674-3.05 3.05-7.624 3.05-10.674 0-2.832-3.05-2.832-7.842 0-10.674zm116.979 106.306c-3.05-3.049-7.842-3.049-10.674 0-2.832 2.832-2.832 7.625 0 10.674 3.05 3.05 7.624 3.05 10.674 0 2.832-3.049 2.832-7.842 0-10.674zm-46.181-122.426c1.089-3.921 5.228-6.317 9.149-5.228 3.921 1.089 6.317 5.228 5.228 9.149-1.089 3.921-5.228 6.317-9.149 5.228-3.921-1.089-6.318-5.01-5.228-9.149zm-29.845 140.07c-3.921-1.089-8.06 1.307-9.149 5.228-1.089 3.921 1.307 8.06 5.228 9.149 3.921 1.089 8.06-1.307 9.149-5.228 1.089-3.921-1.307-8.06-5.228-9.149zm-62.302-86.918c1.089-3.921 5.228-6.317 9.149-5.228 3.921 1.089 6.317 5.228 5.228 9.15-1.089 3.921-5.228 6.317-9.149 5.228-3.921-1.089-6.317-5.011-5.228-9.15zm154.449 33.765c-3.921-1.089-8.06 1.307-9.15 5.228-1.089 3.922 1.09 8.061 5.228 9.15 3.922 1.089 8.061-1.307 9.15-5.228 1.089-3.922-1.307-8.061-5.228-9.15zm-72.759 5.446c0 1.089-.871 1.743-1.743 1.743-1.089 0-1.742-.872-1.742-1.743 0-1.089.871-1.743 1.742-1.743.872 0 1.743.872 1.743 1.743zm-1.743-33.765c.872 0 1.743-.653 1.743-1.743 0-1.089-.871-1.96-1.743-1.742-.871 0-1.742.871-1.742 1.742 0 .872.653 1.743 1.742 1.743zm19.388 15.903c0 .872-.871 1.743-1.742 1.743-1.09 0-1.743-.871-1.743-1.743 0-1.089.871-1.742 1.743-1.742 1.089 0 1.742.871 1.742 1.742zm-37.25 1.743c.871 0 1.742-.871 1.742-1.743 0-.871-.871-1.742-1.742-1.742-.872 0-1.743.653-1.743 1.742 0 .872.654 1.743 1.743 1.743zM335 310.092c.871-.436 1.96-.218 2.396.653.436.872.218 1.961-.654 2.397-.871.435-1.96.217-2.396-.654-.436-.653-.218-1.743.654-2.396zm-28.32 18.516c-.435-.871-1.525-1.089-2.396-.653-.871.436-1.307 1.525-.653 2.396.435.871 1.524 1.089 2.396.654.871-.436 1.089-1.525.653-2.397zm4.14-25.051c.871-.436 1.96-.218 2.396.653.436.872.218 1.961-.654 2.396-.871.436-1.96.218-2.396-.653-.653-.654-.218-1.743.654-2.396zm20.041 31.587c-.436-.871-1.525-1.089-2.396-.653-.871.435-1.089 1.525-.654 2.396.436.871 1.525 1.089 2.397.654.871-.436 1.089-1.525.653-2.397zm-3.05-30.934c.436-.871 1.525-1.089 2.397-.653.871.435 1.089 1.525.653 2.396-.436.871-1.525 1.089-2.396.653-.871-.435-1.089-1.524-.654-2.396zm-15.249 30.281c-.871-.436-1.96-.218-2.396.653-.653.872-.218 1.961.654 2.397.871.435 1.96.217 2.396-.654.436-.871.218-1.961-.654-2.396zm-8.931-23.746c.435-.871 1.524-1.089 2.396-.653.871.436 1.089 1.525.653 2.396-.435.871-1.525 1.089-2.396.654-.871-.436-1.307-1.525-.653-2.397zm33.111 17.21c-.871-.436-1.96-.218-2.396.653-.436.872-.218 1.961.654 2.397.871.435 1.96.217 2.396-.654.436-.871.218-1.96-.654-2.396zm-7.406 16.119c.436 1.307-.436 2.614-1.743 3.05-1.307.435-2.614-.436-3.05-1.743-.435-1.307.436-2.614 1.743-3.05 1.307-.218 2.832.436 3.05 1.743zm-14.596-45.31c1.307-.436 2.179-1.743 1.743-3.05-.436-1.307-1.743-2.178-3.05-1.743-1.307.436-2.178 1.743-1.742 3.05.435 1.307 1.742 2.179 3.049 1.743zm32.459 14.813c.435 1.307-.436 2.614-1.743 3.05-1.307.436-2.614-.436-3.05-1.743-.436-1.307.436-2.614 1.743-3.049 1.307-.436 2.614.217 3.05 1.742zm-50.103 15.903c1.307-.436 2.178-1.743 1.743-3.05-.436-1.307-1.743-2.178-3.05-1.743-1.307.436-2.179 1.743-1.743 3.05.436 1.307 1.743 2.179 3.05 1.743zm39.429-28.319c1.089-.871 2.614-.871 3.485 0 .871 1.089.871 2.614 0 3.485-1.089 1.09-2.614 1.09-3.485 0-1.09-.871-1.09-2.614 0-3.485zm-32.023 35.507c-.871-1.089-2.614-1.089-3.485 0-.872.871-.872 2.396 0 3.486.871 1.089 2.614 1.089 3.485 0 1.089-.872 1.089-2.615 0-3.486zm-3.485-35.507c.871-.871 2.614-.871 3.485 0 1.089 1.089 1.089 2.614 0 3.485-.871 1.09-2.614 1.09-3.485 0-.872-.871-.872-2.614 0-3.485zm38.993 35.507c-.871-1.089-2.396-1.089-3.485 0-1.09.871-1.09 2.396 0 3.486.871 1.089 2.396 1.089 3.485 0 .871-.872.871-2.615 0-3.486zm-15.467-40.954c.436-1.307 1.743-2.178 3.05-1.743 1.307.436 2.179 1.743 1.743 3.05-.436 1.307-1.743 2.179-3.05 1.743-1.307-.218-1.96-1.743-1.743-3.05zm-9.803 46.619c-1.307-.436-2.614.435-3.049 1.742-.436 1.525.435 2.832 1.742 3.05 1.307.436 2.614-.436 3.05-1.743.436-1.307-.436-2.614-1.743-3.049zm-20.912-28.755c.435-1.308 1.743-2.179 3.05-1.743 1.307.436 2.178 1.743 1.742 3.05-.435 1.307-1.742 2.178-3.05 1.742-1.307-.435-1.96-1.742-1.742-3.049zm51.41 11.109c-1.307-.435-2.614.436-3.049 1.743-.218 1.307.653 2.832 1.742 3.05 1.307.436 2.614-.436 3.05-1.743.436-1.307-.436-2.614-1.743-3.05zM341.97 534.25c0 11.763-9.585 21.348-21.348 21.348-11.763 0-21.348-9.585-21.348-21.348 0-11.764 9.585-21.349 21.348-21.349 11.763 0 21.348 9.585 21.348 21.349zm213.701-213.702c0 11.763-9.585 21.348-21.348 21.348-11.763 0-21.348-9.585-21.348-21.348 0-11.763 9.585-21.348 21.348-21.348 11.763 0 21.348 9.585 21.348 21.348zm-448.75 21.348c11.764 0 21.349-9.585 21.349-21.348 0-11.763-9.585-21.348-21.349-21.348-11.763 0-21.348 9.585-21.348 21.348 0 11.763 9.585 21.348 21.348 21.348zM494.894 195.29c10.239-5.881 23.309-2.396 29.191 7.843 5.881 10.238 2.396 23.308-7.843 29.19-10.238 5.882-23.308 2.396-29.19-7.842-5.882-10.239-2.396-23.309 7.842-29.191zM153.975 416.833c-5.882-10.238-18.952-13.724-29.19-7.842-10.239 5.881-13.724 18.952-7.843 29.19 5.882 10.239 18.952 13.724 29.191 7.843 10.238-5.882 13.724-18.952 7.842-29.191zm49.014-299.748c10.238-5.881 23.309-2.396 29.19 7.842 5.882 10.239 2.397 23.309-7.842 29.191-10.238 5.882-23.309 2.396-29.191-7.842-5.881-10.239-2.396-23.309 7.843-29.191zM445.88 495.038c-5.881-10.238-18.952-13.724-29.19-7.842-10.239 5.882-13.724 18.952-7.842 29.191 5.881 10.238 18.952 13.724 29.19 7.842 10.239-5.882 13.724-18.952 7.842-29.191zm-37.032-370.111c5.881-10.238 18.952-13.723 29.19-7.842 10.239 5.882 13.724 18.952 7.842 29.191-5.881 10.238-18.952 13.724-29.19 7.842-10.239-5.882-13.724-18.952-7.842-29.191zM224.337 487.196c-10.238-5.882-23.309-2.396-29.191 7.842-5.881 10.239-2.396 23.309 7.843 29.191 10.238 5.882 23.309 2.396 29.19-7.842 5.882-10.239 2.397-23.309-7.842-29.191zM116.942 203.133c5.882-10.239 18.952-13.724 29.191-7.843 10.238 5.882 13.724 18.952 7.842 29.191-5.882 10.238-18.952 13.724-29.19 7.842-10.239-5.882-13.724-18.952-7.843-29.19zm399.3 205.858c-10.238-5.882-23.308-2.396-29.19 7.842-5.882 10.239-2.396 23.309 7.842 29.191 10.239 5.881 23.309 2.396 29.191-7.843 5.881-10.238 2.396-23.309-7.843-29.19zM59.215 390.693c4.356 16.12-5.229 32.458-21.349 36.815-16.12 4.357-32.458-5.228-36.815-21.349-4.357-16.12 5.228-32.458 21.349-36.815 15.902-4.138 32.458 5.229 36.815 21.349zm452.67 121.337c11.763-11.763 30.715-11.763 42.478 0 11.764 11.763 11.764 30.715 0 42.479-11.763 11.763-30.715 11.763-42.478 0-11.764-11.764-11.764-30.716 0-42.479zm-261.408 69.926c-16.12-4.138-32.458 5.229-36.815 21.349-4.357 15.902 5.228 32.458 21.348 36.815 16.12 4.139 32.458-5.228 36.815-21.349 4.139-16.12-5.228-32.458-21.348-36.815zM1.051 234.937c4.357-16.12 20.695-25.487 36.815-21.348 16.12 4.357 25.487 20.695 21.349 36.815-4.357 16.12-20.695 25.487-36.815 21.348-16.12-4.139-25.705-20.695-21.349-36.815zm617.576 36.815c16.121-4.357 25.706-20.695 21.349-36.815-4.357-15.902-20.695-25.487-36.815-21.348-16.12 4.357-25.705 20.695-21.349 36.815 4.357 16.12 20.695 25.705 36.815 21.348zM250.478 59.14c16.12-4.357 25.705-20.694 21.348-36.815C267.469 6.423 250.914-3.162 235.011.977c-16.12 4.357-25.705 20.695-21.348 36.815 4.357 16.12 20.695 25.705 36.815 21.348zm176.886 544.165c4.357 16.12-5.228 32.458-21.348 36.815-16.12 4.357-32.458-5.228-36.815-21.349-4.357-16.12 5.228-32.458 21.348-36.815 16.12-4.138 32.458 5.229 36.815 21.349zm191.264-233.96c-16.12-4.139-32.459 5.228-36.815 21.348-4.139 16.12 5.228 32.458 21.13 36.815 16.12 4.139 32.458-5.228 36.815-21.348 4.357-16.12-5.01-32.458-21.13-36.815zM86.662 512.03c11.764-11.763 30.716-11.763 42.479 0 11.763 11.763 11.763 30.715 0 42.479-11.763 11.763-30.715 11.763-42.479 0-11.763-11.764-11.763-30.716 0-42.479zM554.364 86.805c-11.763-11.763-30.715-11.763-42.478 0-11.764 11.764-11.764 30.716 0 42.479 11.763 11.764 30.715 11.764 42.478 0 11.764-11.763 11.764-30.715 0-42.479z" fill="#E9EDF6" fill-opacity=".5"/></svg>