<svg width="22" height="21" fill="none" xmlns="http://www.w3.org/2000/svg"><path d="M10.504 0C4.729 0 .004 4.467.004 9.947a9.51 9.51 0 001.662 5.389C1.448 17.73.923 19.526.091 20.4a.357.357 0 00-.043.415c.043.138.175.184.306.184h.044c.13 0 3.456-.507 5.818-1.98 1.357.552 2.8.875 4.288.875 5.775 0 10.5-4.467 10.5-9.948 0-5.48-4.725-9.947-10.5-9.947zm-4.9 11.421c-.788 0-1.4-.645-1.4-1.474s.612-1.473 1.4-1.473c.787 0 1.4.644 1.4 1.473 0 .83-.613 1.474-1.4 1.474zm4.9 0c-.788 0-1.4-.645-1.4-1.474s.612-1.473 1.4-1.473c.787 0 1.4.644 1.4 1.473 0 .83-.613 1.474-1.4 1.474zm4.9 0c-.788 0-1.4-.645-1.4-1.474s.612-1.473 1.4-1.473c.787 0 1.4.644 1.4 1.473 0 .83-.613 1.474-1.4 1.474z" fill="#9D99BF"/></svg>