<svg width="1357" height="327" fill="none" xmlns="http://www.w3.org/2000/svg"><path fill-rule="evenodd" clip-rule="evenodd" d="M475.151 229.756c-4.226 7.046-11.269 18.321-11.269 29.596 0 11.274 5.635 22.549 12.678 29.596 7.044 7.047 16.905 9.865 22.539 14.093 5.635 4.228 7.044 8.456 8.453 9.866 1.408 1.409 1.408 1.409 1.408-1.41 0-4.228 0-11.274-4.226-16.912-4.226-7.047-11.269-12.684-16.904-21.14-5.635-8.456-9.861-19.731-11.27-29.596-1.409-8.456 1.409-15.503 2.818-18.321 0-4.229-1.409-1.41-4.227 4.228zm680.409-4.228c-1.41-7.047-1.41-21.141-7.05-31.006-5.63-9.865-16.9-15.503-26.76-16.912-9.86-1.409-19.73 1.409-26.77 1.409-7.04 0-11.27-1.409-12.68-2.818-1.41-1.41-1.41-1.41 0 1.409 2.82 2.819 7.05 8.456 14.09 12.684 7.04 2.819 16.9 4.228 26.77 7.047 9.86 4.228 19.72 9.865 25.35 16.912 5.64 7.046 8.45 14.093 8.45 16.912 0 4.228-1.4 2.819-1.4-5.637zm42.26 46.508c-1.41-2.819-5.64-11.275-7.05-22.55-1.41-9.865 1.41-21.14 1.41-32.415 0-11.274 0-21.14-7.04-29.596-5.64-8.456-16.91-15.502-22.54-18.321-5.64-2.819-5.64-2.819-4.23-1.409 1.41 1.409 2.82 5.637 4.23 11.274 0 5.638-1.41 14.094 0 22.55 0 8.456 1.41 16.912 5.63 23.959 4.23 7.046 9.86 14.093 14.09 21.14 4.23 7.046 8.45 12.684 11.27 18.321 2.82 5.637 5.64 9.865 4.23 7.047zM1357 327c-2.82 0-5.63 0-9.86-1.409-11.27-1.41-23.95-4.228-35.22-8.456-7.04-2.819-14.09-4.228-21.13-8.456-5.63 2.818-11.27 5.637-18.31 8.456-8.45 4.228-18.32 5.637-28.18 7.046-9.86 1.41-19.72 2.819-36.62 2.819-16.91 0-39.45-1.409-60.58-12.684-22.54-11.275-43.67-31.006-61.98-45.099-18.31-14.093-32.4-21.14-49.3-25.368-16.91-2.819-35.22-2.819-50.718 1.409-15.496 4.228-26.765 12.684-32.4 16.912-5.635 4.228-5.635 4.228 0-2.818 5.635-7.047 18.313-22.55 35.218-33.824 16.9-9.866 38.03-16.913 59.17-18.322 21.13-1.409 40.85 1.409 59.16 11.275 18.31 9.865 36.63 25.368 52.12 42.28 15.5 16.912 26.77 33.824 40.86 42.28 14.08 9.866 30.99 11.275 43.67 9.866 12.67-1.41 21.13-4.228 30.99-7.047 2.81-1.409 4.22-1.409 7.04-2.819-1.41-1.409-4.23-2.818-5.63-4.228-12.68-8.456-26.77-19.731-38.04-39.461-11.27-19.731-19.72-47.918-29.58-69.058-8.45-21.14-16.91-35.233-29.59-45.099-9.86-9.865-26.76-18.321-42.26-21.14-15.49-2.819-29.58-1.409-36.62-1.409-7.05 1.409-7.05 1.409 1.41-2.819 8.45-4.228 26.76-11.275 46.48-11.275 19.73-1.409 40.86 4.228 60.58 14.094 18.31 8.456 33.81 21.14 45.08 39.461 11.27 16.912 19.72 40.871 23.94 62.011 5.64 21.14 7.05 42.28 15.5 57.783s21.13 23.959 32.4 29.596c11.27 5.638 21.13 7.047 30.99 8.456V327h1.41zM296.246 279.082h5.635c5.635 0 18.313 1.41 26.765-4.228 8.452-4.228 11.27-14.093 9.861-22.549-1.409-9.865-8.452-19.731-16.904-29.596-8.453-9.866-18.314-19.731-23.948-32.415-5.635-12.684-5.635-31.005 1.408-46.508 7.044-16.912 19.722-32.415 26.766-40.871 7.043-8.456 7.043-8.456-1.409-4.228-7.043 4.228-21.13 12.684-32.4 23.959-11.27 11.274-19.722 23.958-21.131 38.052-1.408 14.093 2.818 29.596 5.635 38.052 2.818 8.456 4.226 8.456 1.409 2.819-2.818-5.638-8.452-18.322-11.27-32.415-1.409-14.093 0-29.596-4.226-42.28-4.226-12.684-14.087-23.959-29.583-32.415-15.495-9.865-35.217-16.912-49.304-31.006-14.087-14.093-21.131-32.414-23.948-42.28-4.226-9.865-4.226-9.865-4.226 2.819 0 12.684 0 38.052 2.817 63.42 2.817 26.778 9.861 53.555 23.948 74.695 14.087 21.14 36.626 38.052 57.757 47.918 21.13 9.865 42.261 15.503 57.757 21.14 14.087 5.637 22.539 12.684 25.356 19.731 2.818 7.046 1.409 14.093-4.226 19.73-5.635 5.638-14.087 7.047-18.313 8.456h-4.226zm385.985-26.777c-7.044-19.731-14.087-38.052-21.131-54.964-12.678-29.596-25.356-52.146-49.304-67.649-22.54-16.912-56.348-26.777-73.253-31.005-16.904-4.228-16.904-4.228-11.27-1.41 5.635 4.229 18.314 11.275 26.766 23.959 7.043 12.684 11.269 29.597 14.087 45.099 2.817 15.503 7.043 28.187 18.313 39.462 1.409 1.409 2.817 2.818 5.635 4.228 5.635 4.228 9.861 7.046 12.678 8.456 4.226 2.818 8.452 4.228 14.087 5.637 9.861 4.228 22.539 8.456 32.4 11.275 11.27 4.228 19.722 7.047 23.948 9.865l7.044 7.047zM72.262 184.657c-4.226-5.638-11.27-16.912-21.13-22.55-9.861-5.637-22.54-5.637-32.4-1.409-9.862 4.228-16.905 11.275-22.54 14.093-5.635 4.228-9.86 2.819-12.678 2.819-2.818 0-2.818 0 1.408 1.409 2.818 1.41 9.861 5.638 16.905 4.228 7.043 0 16.904-4.228 26.765-5.637 9.861-1.409 22.54 0 30.992 2.819 8.452 2.818 14.087 8.456 15.495 9.865 2.818 1.409 1.41 1.409-2.817-5.637zm-135.236 0c1.41-1.41 11.27-5.638 18.314-12.684 7.043-7.047 12.678-16.912 19.721-25.369 7.044-8.456 14.088-16.912 23.948-18.321 9.861-2.819 22.54 0 29.583 0 5.635 1.409 5.635 1.409 4.226 1.409-1.408 1.41-5.634 2.819-9.86 7.047-4.227 4.228-8.453 11.275-14.088 16.912-5.634 5.638-12.678 11.275-19.721 14.094-7.044 2.818-16.905 5.637-23.948 7.046-8.453 2.819-14.087 5.638-19.722 7.047-7.044 2.819-11.27 4.228-8.453 2.819zM161.01 327c-15.495 0-38.035 0-59.165-1.409-21.13-1.41-38.035-2.819-50.713-8.456-11.27-5.638-18.314-15.503-21.131-21.14-2.818-5.638-2.818-5.638 0-2.819 2.817 1.409 8.452 4.228 16.904 5.637 8.453 0 21.13-1.409 32.4 1.41 11.27 2.818 22.54 11.274 32.401 15.502 0 0-1.409 0-1.409-1.409-11.27-7.047-19.722-18.321-29.583-28.187-9.86-9.865-21.13-18.321-33.809-23.959-12.678-4.228-26.765-5.637-39.443-4.228-12.679 2.819-25.357 8.456-30.992 11.275-5.635 2.819-5.635 2.819-2.817 0 2.817-2.819 8.452-9.865 19.722-14.093 11.27-5.638 25.356-9.866 40.852-8.456 15.496 1.409 30.992 8.456 43.67 19.73 12.678 11.275 19.722 28.187 33.809 39.462 14.087 11.275 33.809 15.503 54.939 16.912 21.131 0 43.67-4.228 63.392-7.047 19.722-2.818 36.626-5.637 52.122-4.228 7.043 1.41 12.678 2.819 19.722 4.228 9.861-4.228 21.13-9.865 28.174-15.502 11.269-8.457 16.904-18.322 22.539-31.006 4.226-12.684 7.044-26.777 12.678-39.461 5.635-12.685 12.679-25.369 22.54-35.234 9.861-9.865 19.722-18.321 32.4-22.549 12.678-4.228 26.765-5.638 38.035-5.638 12.678 1.41 22.539 4.228 32.4 7.047 9.861 2.819 18.313 7.047 22.539 9.865 4.226 1.41 4.226 1.41-4.226 1.41-8.452-1.41-25.356-2.819-43.67 0-18.313 2.818-39.443 11.274-52.122 25.368-11.269 14.093-14.087 32.415-12.678 46.508 1.409 14.093 7.044 25.368 11.27 29.596 2.817 5.637 2.817 5.637 4.226 0 1.409-4.228 2.817-14.093 7.043-23.959 4.226-8.456 11.27-16.912 15.496-21.14 4.226-4.228 4.226-4.228 2.817 2.819-1.408 7.047-4.226 21.14-2.817 33.824 1.409 12.684 8.452 22.55 19.722 29.596 11.27 8.456 29.583 12.684 39.444 15.503 9.861 2.819 14.087 2.819 11.269 2.819h-23.948c-11.269 0-23.948 0-36.626-1.41-12.678-1.409-25.357-5.637-36.626-12.684-9.861-7.046-18.313-16.912-22.54-28.187-4.226-11.274-4.226-25.368-4.226-36.642 0-11.275 1.409-18.322 2.818-22.55 1.408-4.228 1.408-4.228 0-1.409-1.409 2.819-4.226 9.865-7.044 19.731-1.408 8.456-2.817 19.73-4.226 31.005-1.409 11.275-4.226 23.959-11.27 32.415-7.043 8.456-19.721 14.093-39.443 16.912-19.722 2.819-46.487 2.819-60.574 2.819h-97.201L161.01 327zM-132 242.44c15.496-7.047 38.035-16.912 57.757-23.959 23.948-9.866 42.261-18.322 61.983-21.14 19.722-2.819 39.443 0 54.94 4.228 15.495 4.228 28.173 12.684 40.852 21.14 11.27 8.456 22.539 16.912 28.174 22.549 5.635 4.228 5.635 4.228 7.043 1.41 2.818-2.819 7.044-8.456 18.313-11.275 11.27-2.819 30.992-4.228 49.305 1.409 18.313 5.638 36.626 16.912 52.122 19.731 16.905 2.819 30.992-1.409 38.035-2.819 7.044-2.818 7.044-2.818 4.226 2.819-2.817 5.637-8.452 15.503-19.722 25.368-11.269 9.866-29.582 16.912-50.713 21.14-21.131 2.819-45.078 0-63.392-7.046-18.313-7.047-30.991-19.731-42.261-29.597-11.27-9.865-19.722-18.321-30.991-26.777-11.27-8.456-23.948-15.503-38.035-19.731-14.087-4.228-28.174-5.637-42.261-4.228-14.087 1.409-28.174 5.637-33.81 7.047-5.634 1.409-7.043 1.409-18.312 5.637-11.27 4.228-35.218 12.684-56.349 22.55-4.226 2.818-11.269 5.637-16.904 8.456V242.44zm0 46.508v35.233c7.044-1.409 15.496-2.818 23.948-7.046 14.087-5.638 28.174-16.912 40.852-29.597 12.679-12.684 21.13-26.777 26.766-32.414 4.226-7.047 4.226-7.047-7.044 0-11.27 7.046-33.809 19.73-54.939 26.777-9.861 2.819-19.722 5.637-29.583 7.047zm601.517-83.151c5.634-1.41 11.269-1.41 21.13-1.41 16.905 0 42.261 2.819 66.209 14.094 23.948 11.275 45.079 31.005 63.392 45.099 18.313 14.093 32.4 21.14 49.305 25.368 16.904 2.819 35.217 2.818 50.713-1.41 15.496-4.228 26.765-12.684 32.4-16.912 5.635-4.228 5.635-4.228 0 2.819s-18.313 22.55-35.218 33.824c-16.904 9.866-38.035 16.912-59.165 18.322-21.131 1.409-40.853-1.41-59.166-11.275-18.313-9.865-36.626-25.368-52.122-42.28-15.495-16.912-26.765-33.824-40.852-42.28-8.452-5.638-16.905-8.457-26.765-9.866h-25.357c-5.635 0-11.27 1.409-15.496 1.409-2.817 0-2.817 0 0-1.409s9.861-5.637 15.496-8.456c4.226-2.819 9.861-4.228 15.496-5.637zm463.463 60.601l-4.226-1.409c-4.226-1.409-12.678-4.228-18.313-8.456-5.635-5.637-7.044-12.684-4.226-19.731 2.817-7.046 11.269-14.093 25.356-19.731 14.087-5.637 35.218-9.865 57.757-21.14 21.132-9.865 43.672-26.777 57.762-47.917 14.08-21.14 21.13-49.327 23.94-74.695 2.82-26.778 2.82-50.736 2.82-63.42 0-12.685 0-12.685-4.23-2.82-4.22 9.866-11.27 29.597-23.94 42.281-14.09 14.093-33.81 22.55-49.308 31.005-15.496 9.866-25.357 19.731-29.583 32.415-4.226 12.684-2.817 28.187-4.226 42.281-1.409 14.093-8.452 26.777-11.27 32.414-2.817 5.638-1.408 4.228 1.409-2.818 2.817-8.456 7.043-23.959 5.635-38.053-1.409-14.093-9.861-26.777-21.131-38.052-11.269-11.274-25.356-19.73-32.4-23.959-8.452-2.818-8.452-2.818-1.409 4.228 7.044 8.457 19.722 23.959 25.357 40.871 5.635 16.912 5.635 33.825 1.409 46.509-5.635 12.684-15.496 22.549-23.948 32.414-8.453 9.866-15.496 19.731-16.905 29.597-1.408 9.865 2.818 18.321 9.861 22.549 8.452 4.228 19.722 4.228 26.766 4.228l7.043 1.409zm-445.15-14.093c-1.409-1.409 1.408 0 7.043 4.228 5.635 2.819 11.27 7.047 18.313 11.275 7.044 4.228 15.496 7.046 22.54 11.274 7.043 4.228 12.678 11.275 16.904 18.322 4.226 7.047 7.044 14.093 9.861 19.731 2.817 5.637 7.044 7.046 8.452 8.456 1.409 1.409 1.409 1.409-4.226 1.409-7.043 0-19.722 0-28.174-5.637-9.861-4.228-15.496-14.094-21.131-23.959-4.226-9.866-8.452-21.14-14.087-29.596-4.226-8.456-12.678-14.094-15.495-15.503zm305.688-8.456c-2.817-7.047-8.452-18.321-18.313-25.368-8.452-7.047-21.13-8.456-30.991-5.638-9.861 2.819-18.313 8.456-23.948 11.275-7.044 2.819-11.27 1.41-14.087 1.41-2.818 0-2.818 0 1.409 1.409 2.817 1.409 9.86 5.637 16.904 7.047 7.043 0 16.904-2.819 26.765-2.819s22.54 2.819 30.992 7.047c8.452 4.228 12.678 9.865 14.087 12.684 1.409 1.409 0 0-2.818-7.047zm49.305 56.374c-1.409-2.819-5.635-11.275-7.043-22.55-1.409-9.865 1.408-21.14 1.408-32.415 0-11.274 0-21.14-7.043-29.596-5.635-8.456-16.905-15.503-22.54-18.321-5.634-2.819-5.634-2.819-4.226-1.41 1.409 1.41 2.818 5.638 4.226 11.275 0 5.637-1.408 14.093 0 22.55 0 8.456 1.409 16.912 5.635 23.958 4.226 7.047 9.861 14.094 14.087 21.14 4.226 7.047 8.453 12.684 11.27 18.322 2.817 5.637 4.226 9.865 4.226 7.047zm215.527 25.368l-8.45-2.819c-8.45-2.819-23.95-9.865-39.44-12.684-16.906-1.409-32.401 0-52.123 4.228-19.722 2.819-42.261 7.047-63.392 7.047-21.13 0-40.852-5.638-54.939-16.912-14.087-11.275-22.54-28.187-33.809-39.462-12.679-11.275-28.174-19.731-43.67-19.731-15.496 0-30.992 2.819-40.852 8.456-11.27 5.638-16.905 11.275-19.722 14.094-2.818 2.818-2.818 2.818 2.817 0 5.635-2.819 18.313-8.456 30.992-11.275 12.678-2.819 26.765-1.409 39.443 4.228 12.679 4.228 23.948 14.093 33.809 23.959 9.861 9.865 18.313 21.14 29.583 28.187 0 0 1.409 0 1.409 1.409-9.861-4.228-21.131-12.684-32.401-15.503-11.269-2.818-23.947 0-32.4-1.409-8.452 0-14.087-4.228-16.904-5.637-2.818-1.41-2.818-1.41 0 2.818 2.817 5.638 8.452 15.503 21.13 21.14 11.27 5.638 29.583 7.047 50.714 8.456 21.13 1.41 43.67 1.41 59.165 1.41h169.04zm274.7-112.748c1.41-21.14 8.45-43.689 12.68-56.373 4.23-11.275 4.23-11.275-4.23-7.047-8.45 5.638-23.94 15.503-33.8 28.187-9.87 11.275-14.09 23.959-12.68 36.643 1.41 12.684 8.45 25.368 16.9 33.824s19.72 14.093 25.36 16.912l5.63 2.819-2.81-8.456c-1.41-8.456-7.05-26.778-7.05-46.509zm-225.39 104.292c2.82 4.228-5.64-1.41-18.31-8.456-12.68-7.047-31-15.503-49.31-19.731-18.31-4.228-39.44-5.638-57.755-1.41-18.313 4.228-35.218 12.685-52.122 15.503-16.905 2.819-35.218 0-49.305-7.046-14.087-7.047-23.948-18.322-26.765-32.415-2.818-14.094 0-29.596 7.043-40.871 7.044-12.684 19.722-21.14 25.357-25.368 5.635-4.228 5.635-4.228 1.409 0s-11.27 11.274-16.905 21.14c-5.635 9.865-8.452 22.549-5.635 33.824 2.818 11.275 9.861 21.14 21.131 26.777 11.27 7.047 25.356 9.866 47.896 5.638 22.539-5.638 50.713-18.322 76.071-19.731 25.36-1.409 45.08 11.275 63.39 23.959 16.91 11.275 30.99 23.959 33.81 28.187z" fill="url(#paint0_linear)" fill-opacity=".16"/><defs><linearGradient id="paint0_linear" x1="1357" y1="164.305" x2="-132" y2="164.305" gradientUnits="userSpaceOnUse"><stop stop-color="#D6ADD8" stop-opacity="0"/><stop offset=".5" stop-color="#D6ADD8" stop-opacity=".75"/><stop offset="1" stop-color="#D6ADD8" stop-opacity="0"/></linearGradient></defs></svg>