<svg width="600" height="131" fill="none" xmlns="http://www.w3.org/2000/svg"><path fill-rule="evenodd" clip-rule="evenodd" d="M244.655 92.043c-1.703 2.823-4.541 7.34-4.541 11.856 0 4.517 2.27 9.034 5.108 11.857 2.839 2.823 6.812 3.952 9.083 5.646 2.27 1.694 2.838 3.387 3.406 3.952.567.565.567.565.567-.565 0-1.693 0-4.516-1.703-6.775-1.703-2.823-4.541-5.081-6.812-8.469-2.27-3.387-3.973-7.904-4.541-11.856-.567-3.388.568-6.21 1.136-7.34 0-1.694-.568-.565-1.703 1.694zm274.172-1.694c-.568-2.823-.568-8.469-2.838-12.421-2.271-3.952-6.812-6.21-10.786-6.775-3.973-.565-7.947.564-10.785.564s-4.541-.564-5.109-1.129c-.567-.565-.567-.565 0 .565 1.136 1.129 2.839 3.387 5.677 5.081 2.838 1.13 6.812 1.694 10.785 2.823 3.974 1.694 7.947 3.952 10.218 6.775 2.27 2.823 3.406 5.646 3.406 6.775 0 1.694-.568 1.13-.568-2.258zm17.029 18.632c-.567-1.13-2.27-4.517-2.838-9.034-.568-3.952.568-8.469.568-12.986 0-4.516 0-8.469-2.839-11.856-2.27-3.388-6.811-6.21-9.082-7.34-2.27-1.13-2.27-1.13-1.703-.565.568.565 1.135 2.259 1.703 4.517 0 2.259-.568 5.646 0 9.034 0 3.387.568 6.775 2.271 9.598 1.703 2.823 3.973 5.646 5.676 8.469 1.703 2.823 3.406 5.081 4.541 7.34 1.136 2.258 2.271 3.952 1.703 2.823zM600 131c-1.135 0-2.271 0-3.973-.565-4.542-.564-9.65-1.693-14.192-3.387-2.838-1.129-5.676-1.694-8.514-3.388-2.271 1.129-4.541 2.259-7.38 3.388-3.406 1.694-7.379 2.258-11.352 2.823-3.974.564-7.948 1.129-14.759 1.129-6.812 0-15.894-.565-24.409-5.081-9.082-4.517-17.597-12.422-24.976-18.068-7.38-5.645-13.056-8.469-19.868-10.162-6.812-1.13-14.191-1.13-20.435.564-6.244 1.694-10.785 5.082-13.056 6.775-2.27 1.694-2.27 1.694 0-1.129 2.271-2.823 7.379-9.033 14.191-13.55 6.812-3.952 15.327-6.775 23.841-7.34 8.515-.564 16.462.565 23.841 4.517 7.38 3.952 14.759 10.163 21.003 16.938 6.244 6.775 10.785 13.55 16.462 16.938 5.676 3.952 12.488 4.517 17.597 3.952 5.109-.565 8.515-1.694 12.488-2.823 1.135-.565 1.703-.565 2.838-1.129-.567-.565-1.703-1.129-2.27-1.694-5.109-3.388-10.786-7.904-15.327-15.809-4.541-7.904-7.947-19.196-11.92-27.665-3.406-8.469-6.812-14.115-11.921-18.067-3.973-3.952-10.785-7.34-17.029-8.47-6.244-1.128-11.921-.564-14.759-.564-2.838.565-2.838.565.568-1.129s10.785-4.517 18.732-4.517c7.947-.564 16.462 1.694 24.409 5.646 7.379 3.388 13.623 8.47 18.164 15.809 4.542 6.775 7.947 16.373 9.65 24.842 2.271 8.47 2.838 16.938 6.244 23.149 3.406 6.21 8.515 9.598 13.056 11.856 4.541 2.259 8.515 2.823 12.488 3.388V131H600zm-427.436-19.196h2.27c2.271 0 7.38.564 10.786-1.694 3.406-1.694 4.541-5.646 3.973-9.034-.567-3.952-3.406-7.904-6.812-11.856-3.405-3.952-7.379-7.905-9.649-12.986-2.271-5.081-2.271-12.421.567-18.632 2.838-6.775 7.947-12.985 10.785-16.373 2.839-3.388 2.839-3.388-.567-1.694-2.838 1.694-8.515 5.082-13.056 9.598-4.541 4.517-7.947 9.598-8.515 15.244-.567 5.646 1.136 11.857 2.271 15.245 1.135 3.387 1.703 3.387.567 1.129-1.135-2.259-3.405-7.34-4.541-12.986-.567-5.646 0-11.857-1.703-16.938-1.703-5.081-5.676-9.598-11.92-12.986-6.244-3.952-14.191-6.775-19.868-12.42-5.676-5.647-8.514-12.987-9.65-16.939-1.703-3.952-1.703-3.952-1.703 1.13 0 5.08 0 15.244 1.136 25.406 1.135 10.728 3.973 21.455 9.65 29.924 5.676 8.469 14.758 15.244 23.273 19.196 8.515 3.953 17.029 6.21 23.274 8.47 5.676 2.258 9.082 5.08 10.217 7.904 1.135 2.823.568 5.646-1.703 7.904-2.27 2.258-5.676 2.823-7.379 3.388h-1.703zm155.534-10.728c-2.838-7.904-5.676-15.244-8.514-22.019-5.109-11.857-10.218-20.89-19.868-27.1-9.082-6.776-22.706-10.728-29.517-12.422-6.812-1.694-6.812-1.694-4.541-.564 2.27 1.693 7.379 4.516 10.785 9.598 2.838 5.081 4.541 11.856 5.676 18.067 1.136 6.21 2.838 11.292 7.38 15.809.567.564 1.135 1.129 2.27 1.693 2.271 1.694 3.974 2.823 5.109 3.388 1.703 1.13 3.406 1.694 5.676 2.258 3.974 1.694 9.083 3.388 13.056 4.517 4.541 1.694 7.947 2.823 9.65 3.952l2.838 2.823zm-245.79-27.1c-1.703-2.259-4.54-6.776-8.514-9.034-3.974-2.258-9.083-2.258-13.056-.565-3.974 1.694-6.812 4.517-9.082 5.646-2.27 1.694-3.974 1.13-5.11 1.13-1.135 0-1.135 0 .569.564 1.135.565 3.973 2.259 6.811 1.694 2.838 0 6.812-1.694 10.785-2.258 3.974-.565 9.083 0 12.489 1.129 3.406 1.129 5.676 3.387 6.244 3.952 1.135.565.567.565-1.136-2.258zm-54.493 0c.567-.565 4.54-2.259 7.379-5.082 2.838-2.823 5.109-6.775 7.947-10.163 2.838-3.387 5.676-6.775 9.65-7.34 3.973-1.128 9.082 0 11.92 0 2.271.565 2.271.565 1.703.565-.567.565-2.27 1.13-3.973 2.823-1.703 1.694-3.406 4.517-5.677 6.775-2.27 2.259-5.108 4.517-7.947 5.646-2.838 1.13-6.811 2.259-9.65 2.823-3.405 1.13-5.676 2.259-7.947 2.823-2.838 1.13-4.54 1.694-3.405 1.13zM118.07 131c-6.244 0-15.326 0-23.841-.565-8.515-.564-15.326-1.129-20.435-3.387-4.541-2.259-7.38-6.211-8.515-8.469-1.135-2.259-1.135-2.259 0-1.129 1.135.564 3.406 1.693 6.812 2.258 3.406 0 8.515-.565 13.056.565 4.54 1.129 9.082 4.516 13.055 6.21 0 0-.567 0-.567-.564-4.541-2.823-7.947-7.34-11.92-11.292-3.974-3.953-8.515-7.34-13.624-9.599-5.109-1.693-10.785-2.258-15.894-1.693-5.109 1.129-10.218 3.387-12.488 4.516-2.271 1.13-2.271 1.13-1.136 0 1.136-1.129 3.406-3.952 7.947-5.645 4.541-2.259 10.218-3.953 16.462-3.388 6.244.564 12.488 3.387 17.597 7.904 5.109 4.517 7.947 11.292 13.624 15.809 5.676 4.517 13.623 6.211 22.138 6.775 8.514 0 17.597-1.694 25.544-2.823 7.947-1.129 14.758-2.258 21.002-1.694 2.839.565 5.109 1.13 7.947 1.694 3.974-1.694 8.515-3.952 11.353-6.21 4.541-3.388 6.812-7.34 9.083-12.422 1.703-5.081 2.838-10.727 5.108-15.808 2.271-5.082 5.109-10.163 9.083-14.115 3.973-3.952 7.947-7.34 13.056-9.034 5.108-1.694 10.785-2.258 15.326-2.258 5.109.564 9.082 1.694 13.056 2.823 3.973 1.129 7.379 2.823 9.082 3.952 1.703.565 1.703.565-1.703.565-3.406-.565-10.217-1.13-17.597 0-7.379 1.129-15.894 4.516-21.003 10.162-4.541 5.646-5.676 12.986-5.108 18.632.567 5.646 2.838 10.163 4.541 11.857 1.135 2.258 1.135 2.258 1.703 0 .567-1.694 1.135-5.646 2.838-9.599 1.703-3.387 4.541-6.775 6.244-8.469 1.703-1.693 1.703-1.693 1.135 1.13-.567 2.823-1.703 8.469-1.135 13.55.568 5.081 3.406 9.034 7.947 11.857 4.541 3.387 11.921 5.081 15.894 6.21 3.974 1.129 5.676 1.129 4.541 1.129h-9.65c-4.541 0-9.65 0-14.759-.564-5.108-.565-10.217-2.259-14.758-5.082-3.974-2.823-7.38-6.775-9.083-11.292-1.703-4.516-1.703-10.162-1.703-14.68 0-4.516.568-7.339 1.136-9.033.567-1.693.567-1.693 0-.564-.568 1.129-1.703 3.952-2.838 7.904-.568 3.388-1.136 7.904-1.703 12.421-.568 4.517-1.703 9.598-4.542 12.986-2.838 3.388-7.947 5.646-15.894 6.775-7.947 1.129-18.732 1.129-24.408 1.129h-39.168l-2.838.565zM0 97.124c6.244-2.823 15.326-6.775 23.273-9.598 9.65-3.952 17.03-7.34 24.977-8.469 7.947-1.13 15.894 0 22.138 1.694 6.244 1.694 11.353 5.081 16.462 8.469 4.54 3.387 9.082 6.775 11.353 9.033 2.27 1.694 2.27 1.694 2.838.565 1.135-1.13 2.838-3.388 7.379-4.517 4.541-1.13 12.488-1.694 19.868.565 7.379 2.258 14.758 6.775 21.002 7.904 6.812 1.129 12.489-.564 15.327-1.129 2.838-1.129 2.838-1.129 1.703 1.129-1.136 2.258-3.406 6.211-7.947 10.163s-11.921 6.775-20.435 8.469c-8.515 1.129-18.165 0-25.544-2.823-7.38-2.823-12.489-7.905-17.03-11.857-4.54-3.952-7.947-7.34-12.488-10.727-4.541-3.388-9.65-6.21-15.326-7.904-5.677-1.694-11.353-2.259-17.03-1.694-5.676.564-11.353 2.258-13.623 2.823-2.27.564-2.838.564-7.38 2.258-4.54 1.694-14.19 5.082-22.705 9.034-1.703 1.129-4.541 2.258-6.812 3.387v-6.775zm0 18.632v14.115c2.838-.565 6.244-1.129 9.65-2.823 5.676-2.259 11.353-6.775 16.462-11.857 5.108-5.081 8.514-10.727 10.785-12.985 1.703-2.824 1.703-2.824-2.838 0-4.541 2.822-13.624 7.904-22.138 10.727-3.974 1.129-7.947 2.258-11.921 2.823zm242.384-33.311c2.271-.565 4.541-.565 8.515-.565 6.812 0 17.029 1.13 26.679 5.646 9.65 4.517 18.165 12.421 25.544 18.067 7.379 5.646 13.056 8.469 19.868 10.163 6.811 1.129 14.191 1.129 20.435-.565 6.244-1.694 10.785-5.081 13.056-6.775 2.27-1.694 2.27-1.694 0 1.129-2.271 2.823-7.38 9.034-14.191 13.551-6.812 3.952-15.327 6.775-23.842 7.339-8.514.565-16.461-.564-23.841-4.516-7.379-3.953-14.758-10.163-21.002-16.938-6.245-6.776-10.786-13.55-16.462-16.938-3.406-2.259-6.812-3.388-10.785-3.952H236.14c-2.271 0-4.541.564-6.244.564-1.135 0-1.135 0 0-.564 1.135-.565 3.973-2.259 6.244-3.388 1.703-1.13 3.974-1.694 6.244-2.258zm186.755 24.277l-1.703-.564c-1.703-.565-5.109-1.694-7.379-3.388-2.271-2.258-2.838-5.081-1.703-7.904 1.135-2.823 4.541-5.646 10.217-7.905 5.677-2.258 14.192-3.952 23.274-8.469 8.515-3.952 17.597-10.727 23.273-19.196 5.677-8.469 8.515-19.76 9.65-29.924 1.136-10.727 1.136-20.325 1.136-25.407 0-5.08 0-5.08-1.703-1.129-1.703 3.952-4.542 11.857-9.65 16.938-5.677 5.646-13.624 9.034-19.868 12.421-6.244 3.953-10.217 7.905-11.92 12.986-1.703 5.082-1.136 11.292-1.703 16.938-.568 5.646-3.406 10.727-4.542 12.986-1.135 2.258-.567 1.694.568-1.13 1.135-3.387 2.838-9.598 2.271-15.243-.568-5.646-3.974-10.728-8.515-15.245-4.541-4.517-10.218-7.904-13.056-9.598-3.406-1.13-3.406-1.129-.567 1.694 2.838 3.388 7.947 9.598 10.217 16.373 2.271 6.775 2.271 13.55.568 18.632-2.271 5.081-6.244 9.034-9.65 12.986-3.406 3.952-6.244 7.904-6.812 11.856-.568 3.952 1.135 7.34 3.974 9.034 3.405 1.694 7.947 1.694 10.785 1.694l2.838.564zm-179.376-5.646c-.567-.564.568 0 2.839 1.694 2.27 1.129 4.541 2.823 7.379 4.517 2.838 1.694 6.244 2.823 9.082 4.517 2.839 1.693 5.109 4.516 6.812 7.339 1.703 2.823 2.838 5.646 3.974 7.905 1.135 2.258 2.838 2.823 3.406 3.387.567.565.567.565-1.703.565-2.839 0-7.947 0-11.353-2.258-3.974-1.694-6.244-5.646-8.515-9.599-1.703-3.952-3.406-8.469-5.676-11.856-1.703-3.388-5.109-5.646-6.245-6.211zm123.179-3.387c-1.135-2.823-3.406-7.34-7.379-10.163-3.406-2.823-8.515-3.388-12.488-2.258-3.974 1.129-7.38 3.387-9.65 4.516-2.838 1.13-4.541.565-5.677.565-1.135 0-1.135 0 .568.564 1.135.565 3.974 2.259 6.812 2.824 2.838 0 6.811-1.13 10.785-1.13s9.082 1.13 12.488 2.823c3.406 1.694 5.109 3.952 5.677 5.082.567.564 0 0-1.136-2.823zm19.868 22.584c-.568-1.13-2.271-4.517-2.838-9.034-.568-3.952.567-8.469.567-12.986 0-4.516 0-8.469-2.838-11.856-2.27-3.388-6.812-6.21-9.082-7.34-2.271-1.13-2.271-1.13-1.703-.565.567.565 1.135 2.259 1.703 4.517 0 2.259-.568 5.646 0 9.034 0 3.387.567 6.775 2.27 9.598 1.703 2.823 3.974 5.646 5.677 8.469 1.703 2.823 3.406 5.081 4.541 7.34 1.135 2.258 1.703 3.952 1.703 2.823zm86.849 10.162l-3.405-1.129c-3.406-1.129-9.65-3.952-15.894-5.081-6.812-.565-13.056 0-21.003 1.694-7.947 1.129-17.03 2.823-25.544 2.823-8.515 0-16.462-2.259-22.138-6.776-5.677-4.516-9.083-11.292-13.624-15.808-5.109-4.517-11.353-7.905-17.597-7.905-6.244 0-12.488 1.13-16.462 3.388-4.541 2.258-6.811 4.517-7.947 5.646-1.135 1.129-1.135 1.129 1.136 0 2.27-1.129 7.379-3.388 12.488-4.517 5.109-1.129 10.785-.564 15.894 1.694 5.109 1.694 9.65 5.646 13.623 9.598 3.974 3.952 7.38 8.469 11.921 11.292 0 0 .568 0 .568.565-3.974-1.694-8.515-5.082-13.056-6.211-4.541-1.129-9.65 0-13.056-.565-3.406 0-5.676-1.693-6.812-2.258-1.135-.565-1.135-.565 0 1.129 1.136 2.259 3.406 6.211 8.515 8.469 4.541 2.259 11.92 2.823 20.435 3.388 8.515.564 17.597.564 23.841.564h68.117zM590.35 85.268c.568-8.47 3.406-17.503 5.109-22.584 1.703-4.517 1.703-4.517-1.703-2.823-3.406 2.258-9.65 6.21-13.624 11.292-3.973 4.516-5.676 9.598-5.108 14.68.567 5.08 3.406 10.162 6.811 13.55 3.406 3.387 7.947 5.645 10.218 6.775l2.271 1.129-1.136-3.388c-.567-3.387-2.838-10.727-2.838-18.631zm-90.823 41.78c1.135 1.694-2.271-.565-7.379-3.388-5.109-2.823-12.489-6.21-19.868-7.904-7.379-1.694-15.894-2.259-23.273-.565-7.38 1.694-14.191 5.082-21.003 6.211-6.812 1.129-14.191 0-19.868-2.823-5.676-2.823-9.65-7.34-10.785-12.986-1.135-5.646 0-11.856 2.838-16.373 2.838-5.082 7.947-8.47 10.218-10.163 2.27-1.694 2.27-1.694.567 0-1.702 1.694-4.541 4.517-6.811 8.469-2.271 3.952-3.406 9.034-2.271 13.55 1.135 4.517 3.974 8.469 8.515 10.728 4.541 2.823 10.217 3.952 19.3 2.258 9.082-2.258 20.435-7.34 30.653-7.904 10.217-.565 18.164 4.516 25.544 9.598 6.811 4.517 12.488 9.598 13.623 11.292z" fill="#9D99BF" fill-opacity=".3"/></svg>