<svg width="1920" height="422" fill="none" xmlns="http://www.w3.org/2000/svg"><path fill-rule="evenodd" clip-rule="evenodd" d="M783.71 296.504c-5.455 9.094-14.546 23.644-14.546 38.194 0 14.551 7.273 29.101 16.365 38.195 9.092 9.094 21.82 12.731 29.093 18.188 7.274 5.456 9.092 10.912 10.911 12.731 1.818 1.819 1.818 1.819 1.818-1.819 0-5.456 0-14.55-5.455-21.825-5.455-9.094-14.547-16.369-21.82-27.282-7.274-10.912-12.729-25.463-14.547-38.194-1.818-10.913 1.818-20.007 3.637-23.644 0-5.457-1.819-1.819-5.456 5.456zm878.27-5.456c-1.82-9.094-1.82-27.282-9.1-40.013-7.27-12.732-21.82-20.007-34.55-21.826-12.72-1.819-25.45 1.819-34.54 1.819-9.1 0-14.55-1.819-16.37-3.638-1.82-1.818-1.82-1.818 0 1.819 3.64 3.638 9.09 10.913 18.18 16.369 9.1 3.638 21.82 5.457 34.55 9.094 12.73 5.456 25.46 12.732 32.73 21.825 7.28 9.094 10.91 18.188 10.91 21.826 0 5.456-1.81 3.637-1.81-7.275zm54.55 60.02c-1.82-3.638-7.28-14.551-9.1-29.101-1.81-12.731 1.82-27.282 1.82-41.832s0-27.282-9.09-38.194c-7.27-10.913-21.82-20.007-29.09-23.645-7.28-3.637-7.28-3.637-5.46-1.818 1.82 1.818 3.64 7.275 5.46 14.55 0 7.275-1.82 18.188 0 29.1 0 10.913 1.82 21.826 7.27 30.92 5.46 9.094 12.73 18.188 18.18 27.281 5.46 9.094 10.91 16.369 14.55 23.645 3.64 7.275 7.27 12.731 5.46 9.094zM1922 422c-3.64 0-7.27 0-12.73-1.819-14.55-1.819-30.91-5.456-45.46-10.912-9.09-3.638-18.18-5.457-27.27-10.913-7.28 3.637-14.55 7.275-23.64 10.913-10.91 5.456-23.64 7.275-36.37 9.093-12.73 1.819-25.46 3.638-47.28 3.638s-50.91-1.819-78.18-16.369c-29.1-14.55-56.37-40.013-80.01-58.201-23.64-18.188-41.82-27.282-63.64-32.738-21.82-3.638-45.46-3.638-65.47 1.819-20 5.456-34.54 16.369-41.82 21.825-7.27 5.456-7.27 5.456 0-3.638 7.28-9.093 23.64-29.1 45.46-43.65 21.82-12.732 49.1-21.826 76.37-23.644 27.28-1.819 52.73 1.818 76.37 14.55 23.64 12.731 47.28 32.738 67.28 54.563 20 21.826 34.55 43.651 52.73 54.564 18.19 12.731 40.01 14.55 56.37 12.731 16.37-1.819 27.28-5.456 40.01-9.094 3.63-1.818 5.45-1.818 9.09-3.637-1.82-1.819-5.46-3.638-7.27-5.457-16.37-10.912-34.55-25.463-49.1-50.926-14.55-25.462-25.46-61.838-38.19-89.12-10.91-27.282-21.82-45.469-38.18-58.201-12.73-12.731-34.55-23.644-54.55-27.282-20-3.637-38.19-1.818-47.28-1.818-9.09 1.818-9.09 1.818 1.82-3.638 10.91-5.456 34.55-14.55 60.01-14.55 25.45-1.819 52.73 5.456 78.18 18.188 23.64 10.912 43.65 27.281 58.19 50.926 14.55 21.825 25.46 52.744 30.91 80.026 7.28 27.282 9.1 54.563 20.01 74.57 10.91 20.007 27.27 30.919 41.82 38.194 14.54 7.276 27.27 9.094 40 10.913V422h1.82zM552.78 360.161h7.273c7.273 0 23.639 1.819 34.549-5.456 10.91-5.456 14.547-18.188 12.728-29.1-1.818-12.732-10.91-25.463-21.82-38.195-10.91-12.731-23.639-25.463-30.912-41.832s-7.273-40.013 1.818-60.02c9.092-21.825 25.457-41.832 34.549-52.744 9.092-10.913 9.092-10.913-1.818-5.457-9.092 5.457-27.276 16.369-41.822 30.92-14.547 14.55-25.457 30.919-27.276 49.107-1.818 18.188 3.637 38.194 7.274 49.107 3.636 10.913 5.455 10.913 1.818 3.637-3.637-7.275-10.91-23.644-14.547-41.832-1.818-18.187 0-38.194-5.455-54.563s-18.183-30.919-38.185-41.832c-20.002-12.731-45.459-21.825-63.643-40.013-18.183-18.188-27.275-41.832-30.912-54.564-5.455-12.731-5.455-12.731-5.455 3.638 0 16.37 0 49.107 3.637 81.845 3.637 34.557 12.728 69.114 30.912 96.396 18.183 27.281 47.277 49.107 74.552 61.838 27.276 12.732 54.551 20.007 74.553 27.282 18.183 7.275 29.094 16.369 32.73 25.463 3.637 9.094 1.819 18.188-5.455 25.463-7.273 7.275-18.183 9.094-23.638 10.912h-5.455zm498.23-34.556c-9.09-25.463-18.19-49.108-27.28-70.933-16.36-38.194-32.727-67.295-63.639-87.301-29.094-21.826-72.734-34.557-94.555-40.014-21.82-5.456-21.82-5.456-14.546-1.818 7.273 5.456 23.638 14.55 34.548 30.919 9.092 16.369 14.547 38.194 18.184 58.201 3.637 20.007 9.092 36.376 23.638 50.926 1.819 1.819 3.637 3.637 7.274 5.456 7.273 5.456 12.728 9.094 16.365 10.913 5.455 3.637 10.91 5.456 18.184 7.275 12.728 5.456 29.093 10.913 41.817 14.55 14.55 5.457 25.46 9.094 30.92 12.732 5.45 5.456 7.27 7.275 9.09 9.094zm-787.349-87.302c-5.455-7.275-14.547-21.825-27.275-29.1-12.728-7.276-29.094-7.276-41.822-1.819-12.729 5.456-21.82 14.55-29.094 18.188-7.273 5.456-12.728 3.637-16.365 3.637-3.637 0-3.637 0 1.818 1.819 3.637 1.819 12.729 7.275 21.821 5.456 9.091 0 21.82-5.456 34.548-7.275 12.729-1.819 29.094 0 40.004 3.638 10.91 3.637 18.184 10.912 20.002 12.731 3.637 1.819 1.818 1.819-3.637-7.275zm-174.562 0c1.819-1.819 14.547-7.275 23.639-16.369 9.092-9.094 16.365-21.825 25.457-32.738 9.092-10.913 18.183-21.825 30.912-23.644 12.728-3.638 29.094 0 38.185 0 7.274 1.819 7.274 1.819 5.455 1.819-1.818 1.818-7.273 3.637-12.728 9.094-5.455 5.456-10.91 14.55-18.184 21.825-7.273 7.275-16.365 14.55-25.457 18.188-9.091 3.637-21.82 7.275-30.912 9.094-10.91 3.637-18.183 7.275-25.457 9.094-9.091 3.637-14.546 5.456-10.91 3.637zM378.218 422c-20.002 0-49.096 0-76.371-1.819-27.276-1.819-49.096-3.637-65.461-10.912-14.547-7.276-23.639-20.007-27.275-27.282-3.637-7.275-3.637-7.275 0-3.638 3.636 1.819 10.91 5.457 21.82 7.275 10.91 0 27.275-1.818 41.822 1.819 14.547 3.638 29.094 14.55 41.822 20.007 0 0-1.818 0-1.818-1.819-14.547-9.094-25.457-23.644-38.186-36.376-12.728-12.731-27.275-23.644-43.64-30.919-16.365-5.456-34.549-7.275-50.914-5.456-16.365 3.637-32.73 10.912-40.004 14.55-7.273 3.638-7.273 3.638-3.636 0 3.636-3.638 10.91-12.732 25.456-18.188 14.547-7.275 32.731-12.731 52.733-10.913 20.002 1.819 40.004 10.913 56.369 25.463 16.365 14.551 25.457 36.376 43.64 50.926 18.184 14.551 43.641 20.007 70.916 21.826 27.275 0 56.369-5.457 81.826-9.094 25.457-3.638 47.277-7.275 67.279-5.457 9.092 1.819 16.365 3.638 25.457 5.457 12.728-5.457 27.275-12.732 36.367-20.007 14.547-10.913 21.82-23.644 29.094-40.013 5.455-16.369 9.091-34.557 16.365-50.926 7.273-16.369 16.365-32.738 29.094-45.469 12.728-12.732 25.457-23.645 41.822-29.101 16.365-5.456 34.548-7.275 49.095-7.275 16.365 1.819 29.094 5.456 41.822 9.094 12.729 3.637 23.639 9.094 29.094 12.731 5.455 1.819 5.455 1.819-5.455 1.819-10.91-1.819-32.73-3.637-56.369 0-23.639 3.638-50.914 14.55-67.279 32.738-14.547 18.188-18.184 41.832-16.365 60.02 1.818 18.188 9.092 32.738 14.547 38.194 3.636 7.275 3.636 7.275 5.455 0 1.818-5.456 3.636-18.187 9.091-30.919 5.455-10.913 14.547-21.825 20.002-27.282 5.455-5.456 5.455-5.456 3.637 3.638-1.818 9.094-5.455 27.282-3.637 43.651 1.819 16.369 10.91 29.1 25.457 38.194 14.547 10.913 38.186 16.369 50.914 20.007 12.729 3.637 18.184 3.637 14.547 3.637h-30.912c-14.547 0-30.912 0-47.277-1.819-16.365-1.818-32.731-7.275-47.277-16.369-12.729-9.093-23.639-21.825-29.094-36.375-5.455-14.55-5.455-32.738-5.455-47.289 0-14.55 1.818-23.644 3.637-29.1 1.818-5.456 1.818-5.456 0-1.819-1.819 3.638-5.455 12.732-9.092 25.463-1.819 10.913-3.637 25.463-5.455 40.013-1.819 14.551-5.455 30.92-14.547 41.832-9.092 10.913-25.457 18.188-50.914 21.826-25.457 3.637-60.006 3.637-78.189 3.637H387.309L378.218 422zM0 312.873c20.002-9.094 49.096-21.825 74.552-30.919 30.913-12.732 54.551-23.644 80.008-27.282 25.457-3.637 50.914 0 70.916 5.456 20.002 5.457 36.367 16.369 52.732 27.282 14.547 10.913 29.094 21.826 36.367 29.101 7.274 5.456 7.274 5.456 9.092 1.818 3.637-3.637 9.092-10.912 23.639-14.55 14.546-3.637 40.003-5.456 63.642 1.819 23.639 7.275 47.277 21.825 67.279 25.463 21.82 3.638 40.004-1.819 49.096-3.638 9.091-3.637 9.091-3.637 5.455 3.638-3.637 7.275-10.91 20.007-25.457 32.738-14.547 12.731-38.186 21.825-65.461 27.282-27.275 3.637-58.187 0-81.826-9.094-23.639-9.094-40.004-25.463-54.551-38.195-14.546-12.731-25.457-23.644-40.003-34.556-14.547-10.913-30.912-20.007-49.096-25.463-18.183-5.457-36.367-7.276-54.551-5.457-18.183 1.819-36.367 7.275-43.64 9.094-7.273 1.819-9.092 1.819-23.639 7.275-14.546 5.457-45.458 16.369-72.734 29.101-5.455 3.637-14.547 7.275-21.82 10.912v-21.825zm0 60.02v45.469c9.092-1.818 20.002-3.637 30.912-9.093 18.184-7.276 36.367-21.826 52.732-38.195 16.365-16.369 27.276-34.557 34.549-41.832 5.455-9.094 5.455-9.094-9.092 0s-43.64 25.463-70.916 34.557c-12.728 3.638-25.457 7.275-38.185 9.094zm776.437-107.308c7.274-1.819 14.547-1.819 27.275-1.819 21.821 0 54.551 3.638 85.463 18.188 30.912 14.55 58.187 40.013 81.826 58.201 23.639 18.188 41.819 27.282 63.639 32.738 21.82 3.637 45.46 3.637 65.46-1.819 20.01-5.456 34.55-16.369 41.83-21.825 7.27-5.457 7.27-5.457 0 3.637-7.28 9.094-23.64 29.101-45.46 43.651-21.82 12.732-49.1 21.825-76.37 23.644-27.279 1.819-52.736-1.819-76.374-14.55-23.639-12.732-47.278-32.738-67.279-54.563-20.002-21.826-34.549-43.651-52.733-54.564-10.91-7.275-21.82-10.913-34.548-12.731h-32.731c-7.273 0-14.547 1.818-20.002 1.818-3.636 0-3.636 0 0-1.818 3.637-1.819 12.729-7.276 20.002-10.913 5.455-3.638 12.729-5.456 20.002-7.275zm598.243 78.207l-5.46-1.818c-5.45-1.819-16.36-5.457-23.64-10.913-7.27-7.275-9.09-16.369-5.45-25.463 3.63-9.094 14.54-18.188 32.73-25.463 18.18-7.275 45.46-12.731 74.55-27.282 27.27-12.731 56.37-34.557 74.55-61.838 18.19-27.282 27.28-63.658 30.91-96.396 3.64-34.556 3.64-65.476 3.64-81.845s0-16.369-5.45-3.637c-5.46 12.731-14.55 38.194-30.92 54.563-18.18 18.188-43.64 29.1-63.64 40.013-20 12.732-32.73 25.463-38.18 41.832-5.46 16.369-3.64 36.376-5.46 54.564-1.82 18.187-10.91 34.557-14.55 41.832-3.63 7.275-1.81 5.456 1.82-3.638 3.64-10.913 9.09-30.919 7.28-49.107-1.82-18.188-12.73-34.557-27.28-49.107-14.55-14.55-32.73-25.463-41.82-30.919-10.91-3.638-10.91-3.638-1.82 5.456 9.09 10.913 25.46 30.919 32.73 52.745 7.27 21.825 7.27 43.65 1.82 60.019-7.27 16.369-20 29.101-30.91 41.832-10.91 12.732-20.01 25.463-21.82 38.195-1.82 12.731 3.63 23.644 12.72 29.1 10.92 5.457 25.46 5.457 34.55 5.457l9.1 1.818zm-574.604-18.187c-1.819-1.819 1.818 0 9.091 5.456 7.274 3.638 14.547 9.094 23.639 14.55 9.092 5.457 20.002 9.094 29.094 14.55 9.092 5.457 16.365 14.551 21.82 23.645 5.455 9.094 9.092 18.187 12.728 25.463 3.637 7.275 9.092 9.093 10.911 10.912 1.818 1.819 1.818 1.819-5.455 1.819-9.092 0-25.457 0-36.368-7.275-12.728-5.456-20.002-18.188-27.275-30.919-5.455-12.732-10.91-27.282-18.183-38.195-5.456-10.913-16.366-18.188-20.002-20.006zm394.584-10.913c-3.64-9.094-10.91-23.644-23.64-32.738-10.91-9.094-27.28-10.913-40-7.275-12.73 3.637-23.64 10.912-30.92 14.55-9.09 3.638-14.54 1.819-18.18 1.819-3.64 0-3.64 0 1.82 1.819 3.64 1.818 12.73 7.275 21.82 9.093 9.09 0 21.82-3.637 34.55-3.637 12.73 0 29.09 3.637 40 9.094 10.91 5.456 16.37 12.731 18.19 16.369 1.81 1.819 0 0-3.64-9.094zm63.64 72.751c-1.82-3.637-7.27-14.55-9.09-29.1-1.82-12.732 1.82-27.282 1.82-41.832 0-14.551 0-27.282-9.09-38.195-7.28-10.912-21.82-20.006-29.1-23.644-7.27-3.637-7.27-3.637-5.45-1.819 1.82 1.819 3.63 7.275 5.45 14.551 0 7.275-1.82 18.187 0 29.1 0 10.913 1.82 21.825 7.28 30.919 5.45 9.094 12.72 18.188 18.18 27.282 5.45 9.094 10.91 16.369 14.55 23.644 3.63 7.275 5.45 12.732 5.45 9.094zm278.21 32.738l-10.91-3.637c-10.91-3.638-30.91-12.732-50.92-16.369-21.82-1.819-41.82 0-67.27 5.456-25.46 3.638-54.55 9.094-81.83 9.094s-52.73-7.275-70.92-21.825c-18.18-14.551-29.09-36.376-43.64-50.926-16.36-14.551-36.36-25.463-56.37-25.463-20 0-40 3.637-52.73 10.912-14.54 7.275-21.82 14.551-25.45 18.188-3.64 3.638-3.64 3.638 3.63 0 7.28-3.637 23.64-10.912 40.01-14.55 16.36-3.638 34.54-1.819 50.91 5.456 16.37 5.457 30.91 18.188 43.64 30.92 12.73 12.731 23.64 27.281 38.19 36.375 0 0 1.81 0 1.81 1.819-12.72-5.456-27.27-16.369-41.82-20.007-14.54-3.637-30.91 0-41.82-1.818-10.91 0-18.18-5.457-21.82-7.276-3.64-1.818-3.64-1.818 0 3.638 3.64 7.275 10.91 20.007 27.27 27.282 14.55 7.275 38.19 9.094 65.47 10.912 27.27 1.819 56.36 1.819 76.37 1.819h218.2zm354.58-145.502c1.82-27.282 10.91-56.383 16.36-72.752 5.46-14.55 5.46-14.55-5.45-9.093-10.91 7.275-30.91 20.006-43.64 36.375-12.73 14.55-18.19 30.919-16.37 47.288 1.82 16.37 10.91 32.739 21.82 43.651 10.91 10.913 25.46 18.188 32.73 21.826l7.28 3.637-3.64-10.913c-1.82-10.912-9.09-34.556-9.09-60.019zm-290.94 134.59c3.64 5.456-7.27-1.819-23.64-10.913-16.36-9.094-40-20.007-63.64-25.463-23.64-5.456-50.91-7.275-74.55-1.819s-45.46 16.369-67.28 20.007c-21.82 3.637-45.46 0-63.64-9.094-18.19-9.094-30.92-23.644-34.55-41.832-3.64-18.188 0-38.195 9.09-52.745 9.09-16.369 25.46-27.282 32.73-32.738 7.27-5.456 7.27-5.456 1.82 0-5.46 5.456-14.55 14.55-21.82 27.282-7.28 12.731-10.91 29.1-7.28 43.651 3.64 14.55 12.73 27.281 27.28 34.556 14.55 9.094 32.73 12.732 61.82 7.276 29.1-7.276 65.46-23.645 98.19-25.463 32.74-1.819 58.19 14.55 81.83 30.919 21.82 14.55 40 30.919 43.64 36.376z" fill="url(#paint0_linear)" fill-opacity=".2"/><defs><linearGradient id="paint0_linear" x1="1922" y1="212.039" x2="0" y2="212.039" gradientUnits="userSpaceOnUse"><stop stop-color="#E9EDF6" stop-opacity=".5"/><stop offset=".5" stop-color="#E9EDF6"/><stop offset="1" stop-color="#E9EDF6" stop-opacity=".5"/></linearGradient></defs></svg>