<svg width="200" height="60" fill="none" xmlns="http://www.w3.org/2000/svg"><path d="M12.544 50.864c2.279 0 4.113-.82 5.503-2.46 1.413-1.641 2.119-3.635 2.119-5.982 0-2.37-.627-4.34-1.88-5.913-1.253-1.595-3.02-3.088-5.298-4.478-3.623-2.028-6.175-4.09-7.656-6.186-1.458-2.097-2.187-4.99-2.187-8.682 0-3.691 1.127-6.756 3.383-9.194 2.279-2.438 5.218-3.657 8.819-3.657 3.6 0 6.801.82 9.604 2.46a285.482 285.482 0 00-1.88 4.615c-2.643-1.413-5.093-2.12-7.348-2.12-2.233 0-4.022.753-5.367 2.256-1.321 1.482-1.982 3.407-1.982 5.777s.49 4.26 1.47 5.674c.98 1.39 3.042 2.962 6.186 4.716 3.327 1.8 5.731 3.806 7.212 6.016 1.481 2.21 2.222 4.876 2.222 7.998 0 4.261-1.162 7.656-3.486 10.186-2.302 2.529-5.412 3.794-9.332 3.794-3.919 0-7.223-.661-9.912-1.983v-5.469c1.368.798 2.94 1.436 4.717 1.915 1.778.478 3.475.717 5.093.717zM40.23 4.995h6.46C48.08 10.623 52.192 27.292 59.028 55h-5.366l-3.896-16.27H37.324L33.496 55h-5.4A182790.66 182790.66 0 0140.23 4.995zm5.332 15.552l-1.094-4.888a63.969 63.969 0 01-1.026-5.845c-.364 2.849-.809 5.424-1.333 7.725-.5 2.301-.877 4.01-1.128 5.127-.25 1.094-.683 2.94-1.298 5.537a898.168 898.168 0 00-1.3 5.537h10.289l-3.11-13.193zm23.925 29.6h13.706V55H64.19V5.03h5.298v45.117zM102.744 55h-6.391c-2.006-8.5-5.913-25.156-11.724-49.97h5.4a6051.89 6051.89 0 007.622 33.632 112.555 112.555 0 011.812 10.87c.433-3.26.9-6.085 1.401-8.477l8.272-36.026h5.4L102.744 55zm22.627 0h-5.127V5.03h5.127V55zm17.876-50.005h6.46c1.39 5.628 5.503 22.297 12.339 50.005h-5.366l-3.897-16.27h-12.441L136.514 55h-5.401a182790.66 182790.66 0 0112.134-50.005zm5.332 15.552l-1.094-4.888a64.104 64.104 0 01-1.025-5.845c-.365 2.849-.809 5.424-1.333 7.725-.501 2.301-.877 4.01-1.128 5.127-.251 1.094-.684 2.94-1.299 5.537a950.847 950.847 0 00-1.299 5.537h10.288l-3.11-13.193zm31.305 26.199c1.314 0 2.347.333 3.1 1 .752.662 1.128 1.584 1.128 2.767 0 1.21-.368 2.144-1.106 2.802-.741.656-1.786.983-3.133.983-1.337 0-2.372-.33-3.105-.988-.738-.659-1.107-1.595-1.107-2.808 0-1.179.375-2.1 1.123-2.763.749-.662 1.782-.993 3.1-.993zm0 6.541c1.112 0 1.956-.236 2.533-.707.572-.476.859-1.164.859-2.067 0-.91-.287-1.596-.859-2.06-.573-.465-1.417-.697-2.533-.697-1.104 0-1.941.232-2.51.697-.573.46-.859 1.143-.859 2.05 0 .909.288 1.601.865 2.077.572.471 1.407.707 2.504.707zm.702-9.332H184v.954h-8.209v-2.251c0-1.007.192-1.75.578-2.23.385-.482.966-.724 1.741-.724 1.085 0 1.819.55 2.201 1.651l3.689-2.23v1.13l-3.414 1.987v1.713zm-.82 0v-1.308c0-.674-.133-1.169-.399-1.483-.269-.314-.672-.472-1.207-.472-.543 0-.934.161-1.173.483-.24.319-.36.831-.36 1.539v1.24h3.139zm-.067-9.765V31.4h3.992c.139.433.243.875.315 1.324.071.45.106.97.106 1.561 0 1.243-.368 2.21-1.106 2.904-.741.692-1.778 1.038-3.111 1.038-.853 0-1.6-.17-2.24-.51a3.47 3.47 0 01-1.471-1.483c-.341-.644-.511-1.398-.511-2.263 0-.876.161-1.692.483-2.448l.842.37c-.315.742-.472 1.455-.472 2.14 0 1 .298 1.78.893 2.341.595.562 1.421.843 2.476.843 1.108 0 1.949-.27 2.522-.809.572-.543.859-1.338.859-2.386 0-.57-.066-1.125-.197-1.668h-2.527v1.836h-.853zM184 24.262l-2.611 1.022v3.29L184 29.586v.966l-8.243-3.245v-.803l8.243-3.23v.99zm-3.47 1.32l-2.544.954a13.46 13.46 0 01-1.185.382c.36.083.755.2 1.185.354l2.544.966v-2.656zm3.47-9.85v1.09l-6.89 4.487v.044a30.3 30.3 0 012.224-.09H184v.882h-8.209v-1.078l6.861-4.475v-.045c-.101.007-.425.024-.971.05-.55.027-.943.036-1.179.028h-4.711v-.892H184zm0-2.257h-8.209v-.954H184v.954zm-7.474-6.727c0 .902.301 1.616.904 2.14.599.52 1.421.78 2.465.78 1.075 0 1.906-.25 2.493-.752.584-.506.876-1.224.876-2.156 0-.573-.103-1.226-.308-1.96h.836c.214.569.32 1.27.32 2.106 0 1.209-.367 2.143-1.1 2.802-.734.655-1.777.982-3.128.982-.846 0-1.587-.157-2.224-.471a3.434 3.434 0 01-1.471-1.37c-.344-.6-.516-1.303-.516-2.112 0-.86.157-1.613.471-2.257l.82.404a4.35 4.35 0 00-.438 1.864z" fill="#543D49"/></svg>