<svg width="21" height="12" fill="none" xmlns="http://www.w3.org/2000/svg"><path d="M20.75 10.752c-.033-.05-.05-.1-.067-.133-.366-.65-1.05-1.45-2.066-2.4l-.017-.017-.017-.017-.016-.016h-.017a20.43 20.43 0 01-.883-.884c-.217-.283-.284-.583-.15-.883.083-.217.416-.7.983-1.417.3-.383.533-.683.7-.916 1.25-1.667 1.8-2.734 1.633-3.2l-.066-.1c-.05-.067-.15-.134-.334-.184a1.857 1.857 0 00-.7-.033L16.617.57a.462.462 0 00-.217 0c-.1.016-.15.033-.15.033l-.05.033-.05.034a.386.386 0 00-.117.116.398.398 0 00-.1.184 17.498 17.498 0 01-1.166 2.45c-.267.45-.517.833-.734 1.166a5.715 5.715 0 01-.566.734c-.15.15-.284.283-.417.366-.117.1-.217.134-.283.117a2.726 2.726 0 01-.184-.05.772.772 0 01-.25-.267c-.066-.116-.1-.25-.133-.416-.017-.167-.033-.317-.033-.434V4.12c0-.217.016-.384.016-.45 0-.284 0-.567.017-.9.017-.317.017-.584.033-.767 0-.183.017-.383.017-.6 0-.217-.017-.367-.033-.5a1.442 1.442 0 00-.117-.35.695.695 0 00-.217-.267 1.056 1.056 0 00-.366-.15A6.987 6.987 0 0010.05.002C8.683-.015 7.833.07 7.433.27c-.15.083-.283.183-.416.333-.134.167-.15.25-.05.267.433.066.75.216.916.466l.067.134c.05.1.1.266.15.5.05.233.083.5.1.8.033.533.033.983 0 1.35a13.78 13.78 0 01-.1.883 1.74 1.74 0 01-.283.75c-.017.033-.034.05-.05.05-.1.033-.2.05-.3.05-.1 0-.217-.05-.367-.15-.15-.1-.3-.233-.45-.417a6.03 6.03 0 01-.533-.75c-.2-.316-.4-.7-.6-1.133l-.167-.317c-.117-.2-.25-.5-.45-.883-.183-.383-.35-.767-.5-1.117a.708.708 0 00-.267-.35l-.05-.033a.73.73 0 00-.166-.1C3.833.57 3.75.553 3.667.536L.7.552c-.3 0-.517.067-.617.2L.033.82A.418.418 0 000 .985c0 .084.017.184.067.3.433 1.017.9 2 1.416 2.95.517.95.95 1.717 1.334 2.3a27.06 27.06 0 001.15 1.634c.383.516.65.85.783.983.133.15.233.25.3.333l.267.267c.166.167.433.383.766.617.334.25.717.483 1.117.716.417.234.883.434 1.433.584.55.15 1.067.216 1.584.183h1.25c.25-.017.45-.1.583-.233l.05-.05c.033-.05.05-.117.083-.2.034-.084.034-.184.034-.3 0-.317.016-.6.066-.85s.117-.434.184-.567a1.2 1.2 0 01.233-.317.88.88 0 01.183-.15c.034-.016.067-.033.084-.033.166-.05.383 0 .616.167.234.166.45.383.667.633.2.25.45.533.75.85.283.317.55.55.767.7l.216.133c.15.084.334.167.567.234.233.066.433.083.6.05l2.783-.05c.267 0 .484-.05.634-.134.15-.083.25-.183.266-.3a.683.683 0 000-.366c-.033-.167-.05-.267-.083-.317z" fill="#9D99BF"/></svg>